<svg width="121" height="35" viewBox="0 0 121 35" fill="none" xmlns="http://www.w3.org/2000/svg">
<g clip-path="url(#clip0_861_9728)">
<path d="M118.443 13.2248C116.226 14.4525 113.669 14.9073 111.17 14.5189C109.814 14.3265 108.494 13.9302 107.255 13.3431C105.895 12.7241 104.616 11.9365 103.449 10.9985C102.76 10.4628 102.76 11.1237 103.243 12.1812C105.028 15.8616 106.827 19.6672 108.757 23.3963C108.22 23.6903 107.668 23.9551 107.103 24.1894L105.393 24.9338L103.636 25.5461C103.05 25.7478 102.471 25.9775 101.871 26.1236C100.671 26.4366 99.4926 26.8192 98.2655 27.021L96.4527 27.3967L94.612 27.6541C89.7096 28.315 84.7419 28.315 79.8395 27.6541C74.9416 26.9549 70.1294 25.7424 65.4806 24.0364C60.8419 22.3282 56.3113 20.3346 51.9143 18.067C47.0889 15.6111 42.3738 12.9326 37.6449 10.2959C35.2805 8.98093 32.9229 7.66603 30.5378 6.39285C28.1527 5.11968 25.7606 3.86738 23.2859 2.83075C20.8344 1.76076 18.2516 1.02832 15.6067 0.653133C12.9918 0.250755 10.3184 0.526008 7.83785 1.45315C6.62097 1.94187 5.48272 2.61015 4.46015 3.43603C3.43069 4.24256 2.53075 5.2047 1.79232 6.28848C0.344701 8.42435 -0.406614 11.1168 0.310301 13.5588C0.441276 14.1153 2.10259 13.5588 2.03365 13.1274C1.97664 12.8989 1.93734 12.6663 1.91635 12.4317C1.91635 12.2021 1.91649 11.9725 1.88202 11.736C1.84755 11.4994 1.93016 11.2768 1.94395 11.0402C1.97309 10.8053 2.01913 10.5727 2.08179 10.3445C2.33131 9.38232 2.74921 8.47287 3.31573 7.65903C4.60601 5.86123 6.37483 4.46932 8.41696 3.6447C8.91464 3.44128 9.42603 3.2739 9.94727 3.1438L10.7192 2.99772C10.9812 2.94206 11.2776 2.93509 11.5602 2.90031C12.7084 2.80765 13.8628 2.8286 15.0069 2.9629C17.4322 3.3161 19.801 3.98978 22.0521 4.96659C24.452 5.99399 26.7987 7.14337 29.0834 8.41038C38.5342 13.4405 47.8541 19.1315 57.9598 23.6537C61.9874 25.4792 66.133 27.0273 70.3679 28.2872C71.4295 28.5934 72.5119 28.8647 73.5804 29.1569L76.8753 29.8526L80.2048 30.3744L83.562 30.6875C88.0637 31.0029 92.5866 30.7458 97.0247 29.9222C101.52 29.104 105.858 27.5681 109.874 25.3721C111.233 27.9364 112.741 30.4176 114.389 32.8025C114.508 32.982 114.679 33.1204 114.879 33.199C114.596 33.8321 115.389 34.8549 115.878 34.2983C116.407 33.6963 116.904 33.067 117.367 32.4128C117.815 31.7171 118.229 31.0214 118.608 30.277C118.994 29.5583 119.333 28.8146 119.621 28.0507C119.904 27.2646 120.145 26.4714 120.352 25.6853C120.571 24.8979 120.735 24.0957 120.841 23.285C120.938 22.464 121.007 21.6431 121.034 20.8361C121.07 20.0335 121.054 19.2293 120.986 18.4288C120.91 17.6148 120.8 16.8148 120.662 16.0425L120.759 15.9103C120.917 15.7016 120.759 15.4025 120.49 15.1729L120.311 14.3728C120.104 13.7536 118.96 12.9535 118.443 13.2248ZM115.258 24.7808C115.247 24.6831 115.224 24.5872 115.189 24.4955L115.051 24.1894L115.32 24.5791L115.258 24.7808ZM115.065 25.4139C114.851 26.1931 114.631 26.9793 114.417 27.7655C114.189 27.2506 113.941 26.7497 113.693 26.2487C114.072 26.1861 114.258 25.6991 113.817 25.0312L113.617 24.7251L114.424 25.3165C114.511 25.3923 114.617 25.4417 114.73 25.4589C114.844 25.4762 114.96 25.4605 115.065 25.4139ZM105.242 13.9554L105.442 14.0875C105.452 14.1786 105.475 14.2677 105.511 14.3519C105.593 14.5467 105.683 14.7345 105.773 14.9293L105.242 13.9554ZM106.682 14.8041L106.875 14.9085C106.839 14.8981 106.801 14.8981 106.765 14.9085L106.682 14.8041ZM107.179 15.0615C108.207 15.5656 109.28 15.9687 110.384 16.2651C110.389 16.3407 110.403 16.4155 110.426 16.4878C110.612 16.94 110.805 17.3852 110.991 17.8305C110.66 17.8305 110.515 18.1714 110.805 18.7767L111.398 20.0429C109.986 18.6908 108.726 17.1859 107.641 15.5555C107.515 15.3657 107.359 15.1987 107.179 15.0615ZM111.487 16.453C111.901 16.5226 112.314 16.5712 112.728 16.5991C113.169 17.4131 113.603 18.241 114.017 19.0828C113.859 18.8647 113.65 18.6882 113.41 18.568L111.487 16.453ZM114.824 16.5851C115.897 16.4778 116.954 16.2443 117.974 15.8894C117.995 16.0371 117.995 16.187 117.974 16.3347C117.622 16.1329 117.284 16.0912 117.229 16.4182L117.133 16.94C116.755 16.9525 116.378 16.8813 116.03 16.7313C115.472 16.5921 115.416 17.0374 115.658 17.5105L114.824 16.5851ZM119.001 18.0601C119.051 19.2432 119.026 20.4285 118.925 21.6083C118.785 22.781 118.569 23.943 118.277 25.0869C117.991 26.2609 117.613 27.4101 117.147 28.5238C116.696 29.675 116.171 30.7952 115.575 31.8772C115.575 31.8772 115.575 31.8215 115.534 31.7868L114.844 30.6458C114.937 30.657 115.031 30.6354 115.11 30.5847C115.19 30.534 115.249 30.4572 115.279 30.3675C115.789 28.6977 116.25 27.0141 116.699 25.4974C116.926 25.3791 117.036 25.073 116.919 24.6694L117.078 23.9737C117.34 23.9041 117.484 23.6398 117.285 23.2015C117.498 22.3666 117.719 21.5735 117.939 20.8082C117.939 20.8082 117.988 20.8082 118.008 20.8082C118.634 20.0958 118.958 19.1641 118.911 18.2132L119.001 18.0601ZM111.204 24.5791L111.453 24.4329C112.096 25.5574 112.674 26.7189 113.183 27.9115L111.204 24.5791ZM110.088 22.6658L110.005 22.5266C110.061 22.5659 110.125 22.5942 110.191 22.6101L110.088 22.6658Z" fill="#7DFFAF"/>
</g>
<defs>
<clipPath id="clip0_861_9728">
<rect width="121" height="34" fill="white" transform="matrix(1 0 0 -1 0 34.5)"/>
</clipPath>
</defs>
</svg>
