<svg width="62" height="65" viewBox="0 0 62 65" fill="none" xmlns="http://www.w3.org/2000/svg">
<g clip-path="url(#clip0_861_9717)">
<path d="M31.4398 1.65649C30.0823 5.16793 30.5352 8.42346 30.6668 12.1306C30.8378 16.9442 30.9829 21.7275 31.3299 26.5327" stroke="#7DFFAF" stroke-width="1.5" stroke-linecap="round"/>
<path d="M31.0493 35.1526C30.0553 39.9753 30.5024 44.6761 30.9163 49.5521C31.3095 54.1827 31.8612 58.7959 32.4038 63.4104" stroke="#7DFFAF" stroke-width="1.5" stroke-linecap="round"/>
<path d="M0.857544 36.284C3.90676 34.9168 6.78133 34.8613 10.0631 34.6369C15.0283 34.2973 19.8117 33.651 24.6912 32.6934" stroke="#7DFFAF" stroke-width="1.5" stroke-linecap="round"/>
<path d="M35.7354 31.2791C44.1666 30.7351 52.4652 29.3245 60.8259 28.1558" stroke="#7DFFAF" stroke-width="1.5" stroke-linecap="round"/>
<path d="M37.3081 27.1305L40.0105 22.1902" stroke="#7DFFAF" stroke-width="1.5" stroke-linecap="round"/>
<path d="M24.9351 39.092L21.6537 42.3596" stroke="#7DFFAF" stroke-width="1.5" stroke-linecap="round"/>
<path d="M39.798 37.8083L43.0602 40.0256" stroke="#7DFFAF" stroke-width="1.5" stroke-linecap="round"/>
<path d="M23.8541 24.2325C20.3194 23.1546 17.1742 21.5713 13.8168 20.0508" stroke="#7DFFAF" stroke-width="1.5" stroke-linecap="round"/>
</g>
<defs>
<clipPath id="clip0_861_9717">
<rect width="62" height="64" fill="white" transform="translate(0 0.5)"/>
</clipPath>
</defs>
</svg>
