<svg width="45" height="95" viewBox="0 0 45 95" fill="none" xmlns="http://www.w3.org/2000/svg">
<path d="M22.4717 8.2737C22.399 15.3089 22.5572 22.1061 20.8825 28.9493C20.021 32.4697 19.3568 35.9456 17.6666 39.1898C15.2568 43.8151 11.2544 49.4114 5.98911 51.0597C5.21982 51.3006 3.47508 51.4629 5.2286 51.0068C7.13108 50.5119 9.26619 50.1533 11.232 50.0651C14.0842 49.9374 16.6162 51.8705 18.441 53.8636C21.7037 57.4272 23.2569 62.0486 24.4027 66.6778C25.5489 71.3087 25.8528 75.9963 26.5579 80.6969C26.8123 82.3927 27.0432 84.0933 27.2172 85.7993C27.2308 85.9325 27.405 87.8423 27.1776 87.446C25.9082 85.2339 25.8116 81.8159 25.556 79.3658C25.1471 75.4453 25.348 71.5176 25.7643 67.6049C26.0547 64.8754 26.3139 61.9015 27.3885 59.333C28.6693 56.2716 31.4786 54.3183 34.123 52.2593C34.123 52.2593 41.6332 49.1911 40.3875 47.8047C37.5151 44.6079 28.431 42.1147 26.6657 38.1251C24.6505 33.5707 24.2069 28.0733 24.0462 23.1558C23.8758 17.9403 23.5105 12.7047 23.8763 7.5" stroke="#7DFFAF" stroke-width="1.5" stroke-linecap="round"/>
</svg>
