<svg width="549" height="123" viewBox="0 0 549 123" fill="none" xmlns="http://www.w3.org/2000/svg">
<path fill-rule="evenodd" clip-rule="evenodd" d="M47.1657 33.7775L19.0492 45.255L47.788 57.2159V84.5H61.1022L90.514 7.5H47.658L47.1657 33.7775ZM42.7509 0.500002C41.6609 0.500002 40.7716 1.37276 40.7512 2.46253L40.2532 29.0385L5.1732 43.3586C3.52047 44.0332 3.5125 46.3708 5.16059 47.0567L40.788 61.8846V89.5C40.788 90.6046 41.6834 91.5 42.788 91.5H64.5447C65.3739 91.5 66.1171 90.9883 66.413 90.2137L99.6445 3.21365C100.145 1.90432 99.1777 0.500002 97.7762 0.500002H42.7509Z" fill="url(#paint0_linear_1106_656)"/>
<path fill-rule="evenodd" clip-rule="evenodd" d="M134.196 58.2225L162.313 46.745L133.574 34.7841V7.5H120.26L90.8481 84.5H133.704L134.196 58.2225ZM138.611 91.5C139.701 91.5 140.59 90.6272 140.611 89.5375L141.109 62.9615L176.189 48.6415C177.842 47.9668 177.85 45.6293 176.201 44.9433L140.574 30.1154V2.5C140.574 1.39543 139.679 0.5 138.574 0.5H116.817C115.988 0.5 115.245 1.01171 114.949 1.78635L81.7176 88.7864C81.2174 90.0957 82.1843 91.5 83.5859 91.5H138.611Z" fill="url(#paint1_linear_1106_656)"/>
<path fill-rule="evenodd" clip-rule="evenodd" d="M42.861 99.2931C42.861 98.1665 43.7218 97 45.081 97H47.181C48.0095 97 48.681 97.6716 48.681 98.5V98.59C48.681 99.3687 48.0498 100 47.271 100C46.4923 100 45.861 100.631 45.861 101.41V107.224C45.861 107.89 45.5782 108.561 45.0284 109.015L43.8362 110L45.0284 110.985C45.5782 111.439 45.861 112.11 45.861 112.776V118.59C45.861 119.369 46.4923 120 47.271 120C48.0498 120 48.681 120.631 48.681 121.41V121.5C48.681 122.328 48.0095 123 47.181 123H45.081C43.7218 123 42.861 121.834 42.861 120.707V114.028C42.861 113.431 42.5947 112.866 42.1349 112.486L41.1986 111.712C41.0325 111.575 40.8237 111.5 40.6081 111.5C40.0961 111.5 39.681 111.085 39.681 110.573V109.427C39.681 108.915 40.0961 108.5 40.6081 108.5C40.8237 108.5 41.0325 108.425 41.1986 108.288L42.1348 107.514C42.5947 107.134 42.861 106.569 42.861 105.972V99.2931Z" fill="#F5F6F6"/>
<path fill-rule="evenodd" clip-rule="evenodd" d="M138.501 99.2931C138.501 98.1665 137.64 97 136.281 97H134.181C133.353 97 132.681 97.6716 132.681 98.5V98.59C132.681 99.3687 133.312 100 134.091 100C134.87 100 135.501 100.631 135.501 101.41V107.224C135.501 107.89 135.784 108.561 136.334 109.015L137.526 110L136.334 110.985C135.784 111.439 135.501 112.11 135.501 112.776V118.59C135.501 119.369 134.87 120 134.091 120C133.312 120 132.681 120.631 132.681 121.41V121.5C132.681 122.328 133.353 123 134.181 123H136.281C137.64 123 138.501 121.834 138.501 120.707V114.028C138.501 113.431 138.767 112.866 139.227 112.486L140.163 111.712C140.33 111.575 140.538 111.5 140.754 111.5C141.266 111.5 141.681 111.085 141.681 110.573V109.427C141.681 108.915 141.266 108.5 140.754 108.5C140.538 108.5 140.33 108.425 140.163 108.288L139.227 107.514C138.767 107.134 138.501 106.569 138.501 105.972V99.2931Z" fill="#F5F6F6"/>
<path d="M50.8083 100.871C50.8083 100.319 51.256 99.8709 51.8083 99.8709H53.5174C54.0697 99.8709 54.5174 100.319 54.5174 100.871V102.58C54.5174 103.132 54.0697 103.58 53.5174 103.58H51.8083C51.256 103.58 50.8083 103.132 50.8083 102.58V100.871Z" fill="#F5F6F6"/>
<path d="M50.8083 106.064C50.8083 105.511 51.256 105.064 51.8083 105.064H53.5174C54.0696 105.064 54.5174 105.511 54.5174 106.064V107.773C54.5174 108.325 54.0696 108.773 53.5174 108.773H51.8083C51.256 108.773 50.8083 108.325 50.8083 107.773V106.064Z" fill="#F5F6F6"/>
<path d="M50.8083 117.191C50.8083 116.639 51.256 116.191 51.8083 116.191H53.5174C54.0696 116.191 54.5174 116.639 54.5174 117.191V118.9C54.5174 119.452 54.0696 119.9 53.5174 119.9H51.8083C51.256 119.9 50.8083 119.452 50.8083 118.9V117.191Z" fill="#F5F6F6"/>
<path d="M50.8083 111.256C50.8083 110.704 51.256 110.256 51.8083 110.256H59.4519C60.0042 110.256 60.4519 110.704 60.4519 111.256V112.965C60.4519 113.518 60.0042 113.965 59.4519 113.965H51.8083C51.256 113.965 50.8083 113.518 50.8083 112.965V111.256Z" fill="#F5F6F6"/>
<path d="M61.9356 117.191C61.9356 116.639 62.3833 116.191 62.9356 116.191H80.9647C81.5169 116.191 81.9647 116.639 81.9647 117.191V118.9C81.9647 119.452 81.5169 119.9 80.9647 119.9H62.9356C62.3833 119.9 61.9356 119.452 61.9356 118.9V117.191Z" fill="#F5F6F6"/>
<path d="M56.7429 100.871C56.7429 100.319 57.1906 99.8709 57.7429 99.8709H59.452C60.0042 99.8709 60.452 100.319 60.452 100.871V102.58C60.452 103.132 60.0042 103.58 59.452 103.58H57.7429C57.1906 103.58 56.7429 103.132 56.7429 102.58V100.871Z" fill="#F5F6F6"/>
<path d="M56.7429 106.064C56.7429 105.511 57.1906 105.064 57.7429 105.064H59.452C60.0042 105.064 60.452 105.511 60.452 106.064V107.773C60.452 108.325 60.0042 108.773 59.452 108.773H57.7429C57.1906 108.773 56.7429 108.325 56.7429 107.773V106.064Z" fill="#F5F6F6"/>
<path d="M56.7429 117.191C56.7429 116.639 57.1906 116.191 57.7429 116.191H59.452C60.0042 116.191 60.452 116.639 60.452 117.191V118.9C60.452 119.452 60.0042 119.9 59.452 119.9H57.7429C57.1906 119.9 56.7429 119.452 56.7429 118.9V117.191Z" fill="#F5F6F6"/>
<path d="M61.9356 100.871C61.9356 100.319 62.3833 99.8709 62.9356 99.8709H64.6447C65.1969 99.8709 65.6447 100.319 65.6447 100.871V102.58C65.6447 103.132 65.1969 103.58 64.6447 103.58H62.9356C62.3833 103.58 61.9356 103.132 61.9356 102.58V100.871Z" fill="#F5F6F6"/>
<path d="M61.9356 106.064C61.9356 105.511 62.3833 105.064 62.9356 105.064H64.6447C65.1969 105.064 65.6447 105.511 65.6447 106.064V107.773C65.6447 108.325 65.1969 108.773 64.6447 108.773H62.9356C62.3833 108.773 61.9356 108.325 61.9356 107.773V106.064Z" fill="#F5F6F6"/>
<path d="M61.9356 111.256C61.9356 110.704 62.3833 110.256 62.9356 110.256H64.6447C65.1969 110.256 65.6447 110.704 65.6447 111.256V112.965C65.6447 113.518 65.1969 113.965 64.6447 113.965H62.9356C62.3833 113.965 61.9356 113.518 61.9356 112.965V111.256Z" fill="#F5F6F6"/>
<path d="M67.8701 100.871C67.8701 100.319 68.3178 99.8709 68.8701 99.8709H70.5792C71.1315 99.8709 71.5792 100.319 71.5792 100.871V102.58C71.5792 103.132 71.1315 103.58 70.5792 103.58H68.8701C68.3178 103.58 67.8701 103.132 67.8701 102.58V100.871Z" fill="#F5F6F6"/>
<path d="M96.801 100.871C96.801 100.319 97.2487 99.8709 97.801 99.8709H99.5101C100.062 99.8709 100.51 100.319 100.51 100.871V102.58C100.51 103.132 100.062 103.58 99.5101 103.58H97.801C97.2487 103.58 96.801 103.132 96.801 102.58V100.871Z" fill="#F5F6F6"/>
<path d="M96.801 106.064C96.801 105.511 97.2487 105.064 97.801 105.064H99.5101C100.062 105.064 100.51 105.511 100.51 106.064V107.773C100.51 108.325 100.062 108.773 99.5101 108.773H97.801C97.2487 108.773 96.801 108.325 96.801 107.773V106.064Z" fill="#F5F6F6"/>
<path d="M96.801 117.191C96.801 116.639 97.2487 116.191 97.801 116.191H99.5101C100.062 116.191 100.51 116.639 100.51 117.191V118.9C100.51 119.452 100.062 119.9 99.5101 119.9H97.801C97.2487 119.9 96.801 119.452 96.801 118.9V117.191Z" fill="#F5F6F6"/>
<path d="M116.088 100.871C116.088 100.319 116.536 99.8709 117.088 99.8709H118.797C119.35 99.8709 119.797 100.319 119.797 100.871V102.58C119.797 103.132 119.35 103.58 118.797 103.58H117.088C116.536 103.58 116.088 103.132 116.088 102.58V100.871Z" fill="#F5F6F6"/>
<path d="M116.088 106.064C116.088 105.511 116.536 105.064 117.088 105.064H118.797C119.35 105.064 119.797 105.511 119.797 106.064V107.773C119.797 108.325 119.35 108.773 118.797 108.773H117.088C116.536 108.773 116.088 108.325 116.088 107.773V106.064Z" fill="#F5F6F6"/>
<path d="M116.088 111.256C116.088 110.704 116.536 110.256 117.088 110.256H118.797C119.35 110.256 119.797 110.704 119.797 111.256V112.965C119.797 113.518 119.35 113.965 118.797 113.965H117.088C116.536 113.965 116.088 113.518 116.088 112.965V111.256Z" fill="#F5F6F6"/>
<path d="M116.088 117.191C116.088 116.639 116.536 116.191 117.088 116.191H118.797C119.35 116.191 119.797 116.639 119.797 117.191V118.9C119.797 119.452 119.35 119.9 118.797 119.9H117.088C116.536 119.9 116.088 119.452 116.088 118.9V117.191Z" fill="#F5F6F6"/>
<path d="M67.8701 106.064C67.8701 105.511 68.3178 105.064 68.8701 105.064H70.5792C71.1315 105.064 71.5792 105.511 71.5792 106.064V107.773C71.5792 108.325 71.1315 108.773 70.5792 108.773H68.8701C68.3178 108.773 67.8701 108.325 67.8701 107.773V106.064Z" fill="#F5F6F6"/>
<path d="M67.8701 111.256C67.8701 110.704 68.3178 110.256 68.8701 110.256H70.5792C71.1315 110.256 71.5792 110.704 71.5792 111.256V112.965C71.5792 113.518 71.1315 113.965 70.5792 113.965H68.8701C68.3178 113.965 67.8701 113.518 67.8701 112.965V111.256Z" fill="#F5F6F6"/>
<path d="M73.0628 100.871C73.0628 100.319 73.5105 99.8709 74.0628 99.8709H75.7719C76.3242 99.8709 76.7719 100.319 76.7719 100.871V102.58C76.7719 103.132 76.3242 103.58 75.7719 103.58H74.0628C73.5105 103.58 73.0628 103.132 73.0628 102.58V100.871Z" fill="#F5F6F6"/>
<path d="M101.994 100.871C101.994 100.319 102.441 99.8709 102.994 99.8709H104.703C105.255 99.8709 105.703 100.319 105.703 100.871V102.58C105.703 103.132 105.255 103.58 104.703 103.58H102.994C102.441 103.58 101.994 103.132 101.994 102.58V100.871Z" fill="#F5F6F6"/>
<path d="M101.994 106.064C101.994 105.511 102.441 105.064 102.994 105.064H104.703C105.255 105.064 105.703 105.511 105.703 106.064V107.773C105.703 108.325 105.255 108.773 104.703 108.773H102.994C102.441 108.773 101.994 108.325 101.994 107.773V106.064Z" fill="#F5F6F6"/>
<path d="M101.994 111.998C101.994 111.446 102.441 110.998 102.994 110.998H104.703C105.255 110.998 105.703 111.446 105.703 111.998V113.707C105.703 114.26 105.255 114.707 104.703 114.707H102.994C102.441 114.707 101.994 114.26 101.994 113.707V111.998Z" fill="#F5F6F6"/>
<path d="M101.994 117.191C101.994 116.639 102.441 116.191 102.994 116.191H104.703C105.255 116.191 105.703 116.639 105.703 117.191V118.9C105.703 119.452 105.255 119.9 104.703 119.9H102.994C102.441 119.9 101.994 119.452 101.994 118.9V117.191Z" fill="#F5F6F6"/>
<path d="M121.281 100.871C121.281 100.319 121.729 99.8709 122.281 99.8709H123.99C124.542 99.8709 124.99 100.319 124.99 100.871V102.58C124.99 103.132 124.542 103.58 123.99 103.58H122.281C121.729 103.58 121.281 103.132 121.281 102.58V100.871Z" fill="#F5F6F6"/>
<path d="M121.281 106.064C121.281 105.511 121.729 105.064 122.281 105.064H123.99C124.542 105.064 124.99 105.511 124.99 106.064V107.773C124.99 108.325 124.542 108.773 123.99 108.773H122.281C121.729 108.773 121.281 108.325 121.281 107.773V106.064Z" fill="#F5F6F6"/>
<path d="M121.281 111.256C121.281 110.704 121.729 110.256 122.281 110.256H123.99C124.542 110.256 124.99 110.704 124.99 111.256V112.965C124.99 113.518 124.542 113.965 123.99 113.965H122.281C121.729 113.965 121.281 113.518 121.281 112.965V111.256Z" fill="#F5F6F6"/>
<path d="M126.474 111.256C126.474 110.704 126.921 110.256 127.474 110.256H129.183C129.735 110.256 130.183 110.704 130.183 111.256V118.9C130.183 119.452 129.735 119.9 129.183 119.9H127.474C126.921 119.9 126.474 119.452 126.474 118.9V111.256Z" fill="#F5F6F6"/>
<path d="M121.281 117.191C121.281 116.639 121.729 116.191 122.281 116.191H123.99C124.542 116.191 124.99 116.639 124.99 117.191V118.9C124.99 119.452 124.542 119.9 123.99 119.9H122.281C121.729 119.9 121.281 119.452 121.281 118.9V117.191Z" fill="#F5F6F6"/>
<path d="M84.1901 100.871C84.1901 100.319 84.6378 99.8709 85.1901 99.8709H86.8992C87.4515 99.8709 87.8992 100.319 87.8992 100.871V102.58C87.8992 103.132 87.4515 103.58 86.8992 103.58H85.1901C84.6378 103.58 84.1901 103.132 84.1901 102.58V100.871Z" fill="#F5F6F6"/>
<path d="M73.0628 106.064C73.0628 105.511 73.5105 105.064 74.0628 105.064H75.7719C76.3242 105.064 76.7719 105.511 76.7719 106.064V107.773C76.7719 108.325 76.3242 108.773 75.7719 108.773H74.0628C73.5105 108.773 73.0628 108.325 73.0628 107.773V106.064Z" fill="#F5F6F6"/>
<path d="M73.0628 111.256C73.0628 110.704 73.5105 110.256 74.0628 110.256H75.7719C76.3242 110.256 76.7719 110.704 76.7719 111.256V112.965C76.7719 113.518 76.3242 113.965 75.7719 113.965H74.0628C73.5105 113.965 73.0628 113.518 73.0628 112.965V111.256Z" fill="#F5F6F6"/>
<path d="M78.2556 100.871C78.2556 100.319 78.7033 99.8709 79.2556 99.8709H80.9647C81.517 99.8709 81.9647 100.319 81.9647 100.871V102.58C81.9647 103.132 81.517 103.58 80.9647 103.58H79.2556C78.7033 103.58 78.2556 103.132 78.2556 102.58V100.871Z" fill="#F5F6F6"/>
<path d="M107.187 100.871C107.187 100.319 107.634 99.8709 108.187 99.8709H109.896C110.448 99.8709 110.896 100.319 110.896 100.871V102.58C110.896 103.132 110.448 103.58 109.896 103.58H108.187C107.634 103.58 107.187 103.132 107.187 102.58V100.871Z" fill="#F5F6F6"/>
<path d="M107.187 106.064C107.187 105.511 107.634 105.064 108.187 105.064H109.896C110.448 105.064 110.896 105.511 110.896 106.064V107.773C110.896 108.325 110.448 108.773 109.896 108.773H108.187C107.634 108.773 107.187 108.325 107.187 107.773V106.064Z" fill="#F5F6F6"/>
<path d="M107.187 117.191C107.187 116.639 107.634 116.191 108.187 116.191H109.896C110.448 116.191 110.896 116.639 110.896 117.191V118.9C110.896 119.452 110.448 119.9 109.896 119.9H108.187C107.634 119.9 107.187 119.452 107.187 118.9V117.191Z" fill="#F5F6F6"/>
<path d="M126.474 100.871C126.474 100.319 126.921 99.8709 127.474 99.8709H129.183C129.735 99.8709 130.183 100.319 130.183 100.871V102.58C130.183 103.132 129.735 103.58 129.183 103.58H127.474C126.921 103.58 126.474 103.132 126.474 102.58V100.871Z" fill="#F5F6F6"/>
<path d="M126.474 106.064C126.474 105.511 126.921 105.064 127.474 105.064H129.183C129.735 105.064 130.183 105.511 130.183 106.064V107.773C130.183 108.325 129.735 108.773 129.183 108.773H127.474C126.921 108.773 126.474 108.325 126.474 107.773V106.064Z" fill="#F5F6F6"/>
<path d="M89.3828 100.871C89.3828 100.319 89.8305 99.8709 90.3828 99.8709H92.0919C92.6442 99.8709 93.0919 100.319 93.0919 100.871V102.58C93.0919 103.132 92.6442 103.58 92.0919 103.58H90.3828C89.8305 103.58 89.3828 103.132 89.3828 102.58V100.871Z" fill="#F5F6F6"/>
<path d="M78.2556 106.064C78.2556 105.511 78.7033 105.064 79.2556 105.064H80.9647C81.517 105.064 81.9647 105.511 81.9647 106.064V107.773C81.9647 108.325 81.517 108.773 80.9647 108.773H79.2556C78.7033 108.773 78.2556 108.325 78.2556 107.773V106.064Z" fill="#F5F6F6"/>
<path d="M84.1901 111.256C84.1901 110.704 84.6378 110.256 85.1901 110.256H86.8992C87.4515 110.256 87.8992 110.704 87.8992 111.256V112.965C87.8992 113.518 87.4515 113.965 86.8992 113.965H85.1901C84.6378 113.965 84.1901 113.518 84.1901 112.965V111.256Z" fill="#F5F6F6"/>
<path d="M89.3828 108.773H93.0919V112.965C93.0919 113.518 92.6442 113.965 92.0919 113.965H90.3828C89.8306 113.965 89.3828 113.518 89.3828 112.965V108.773Z" fill="#F5F6F6"/>
<path d="M84.1901 106.064C84.1901 105.511 84.6378 105.064 85.1901 105.064H92.0919C92.6442 105.064 93.0919 105.511 93.0919 106.064L93.0919 108.773L85.1901 108.773C84.6378 108.773 84.1901 108.325 84.1901 107.773V106.064Z" fill="#F5F6F6"/>
<path d="M78.2556 111.256C78.2556 110.704 78.7033 110.256 79.2556 110.256H80.9647C81.517 110.256 81.9647 110.704 81.9647 111.256V112.965C81.9647 113.518 81.517 113.965 80.9647 113.965H79.2556C78.7033 113.965 78.2556 113.518 78.2556 112.965V111.256Z" fill="#F5F6F6"/>
<path d="M84.1901 117.191C84.1901 116.639 84.6378 116.191 85.1901 116.191H86.8992C87.4515 116.191 87.8992 116.639 87.8992 117.191V118.9C87.8992 119.452 87.4515 119.9 86.8992 119.9H85.1901C84.6378 119.9 84.1901 119.452 84.1901 118.9V117.191Z" fill="#F5F6F6"/>
<path d="M89.3828 117.191C89.3828 116.639 89.8305 116.191 90.3828 116.191H92.0919C92.6442 116.191 93.0919 116.639 93.0919 117.191V118.9C93.0919 119.452 92.6442 119.9 92.0919 119.9H90.3828C89.8305 119.9 89.3828 119.452 89.3828 118.9V117.191Z" fill="#F5F6F6"/>
<path d="M222.361 60.17C221.809 60.17 221.361 59.7222 221.361 59.17V33.01C221.361 32.4577 221.809 32.01 222.361 32.01H227.521C228.073 32.01 228.521 32.4577 228.521 33.01V59.17C228.521 59.7222 228.073 60.17 227.521 60.17H222.361ZM213.681 37.97C213.129 37.97 212.681 37.5222 212.681 36.97V32.81C212.681 32.2577 213.129 31.81 213.681 31.81H236.201C236.753 31.81 237.201 32.2577 237.201 32.81V36.97C237.201 37.5222 236.753 37.97 236.201 37.97H213.681Z" fill="#F5F6F6"/>
<path d="M249.458 60.17C248.905 60.17 248.458 59.7222 248.458 59.17V32.81C248.458 32.2577 248.905 31.81 249.458 31.81H254.618C255.17 31.81 255.618 32.2577 255.618 32.81V59.17C255.618 59.7222 255.17 60.17 254.618 60.17H249.458ZM266.818 60.17C266.265 60.17 265.818 59.7222 265.818 59.17V32.81C265.818 32.2577 266.265 31.81 266.818 31.81H271.978C272.53 31.81 272.978 32.2577 272.978 32.81V59.17C272.978 59.7222 272.53 60.17 271.978 60.17H266.818ZM253.538 48.65C252.985 48.65 252.538 48.2022 252.538 47.65V43.65C252.538 43.0977 252.985 42.65 253.538 42.65H267.418C267.97 42.65 268.418 43.0977 268.418 43.65V47.65C268.418 48.2022 267.97 48.65 267.418 48.65H253.538Z" fill="#F5F6F6"/>
<path d="M285.408 60.17C284.705 60.17 284.222 59.4637 284.476 58.8083L294.7 32.4483C294.85 32.0635 295.22 31.81 295.633 31.81H301.18C301.595 31.81 301.966 32.0652 302.114 32.4518L312.227 58.8118C312.478 59.4667 311.995 60.17 311.293 60.17H305.981C305.555 60.17 305.175 59.8989 305.036 59.4952L297.489 37.5544C297.283 36.9545 297.728 36.33 298.363 36.33C299 36.33 299.446 36.9599 299.234 37.5609L291.503 59.5023C291.362 59.9023 290.984 60.17 290.56 60.17H285.408ZM291.628 55.21C291.076 55.21 290.628 54.7622 290.628 54.21V50.53C290.628 49.9777 291.076 49.53 291.628 49.53H305.268C305.82 49.53 306.268 49.9777 306.268 50.53V54.21C306.268 54.7622 305.82 55.21 305.268 55.21H291.628Z" fill="#F5F6F6"/>
<path d="M324.403 60.17C323.851 60.17 323.403 59.7222 323.403 59.17V32.81C323.403 32.2577 323.851 31.81 324.403 31.81H328.026C328.361 31.81 328.674 31.9782 328.859 32.2581L338.769 47.2315C339.058 47.6678 338.745 48.25 338.222 48.25C337.699 48.25 337.386 47.6688 337.674 47.2325L347.547 32.2595C347.732 31.9788 348.045 31.81 348.381 31.81H352.003C352.555 31.81 353.003 32.2577 353.003 32.81V59.17C353.003 59.7222 352.555 60.17 352.003 60.17H346.923C346.371 60.17 345.923 59.7222 345.923 59.17V44.2231C345.923 43.9359 346.198 43.7285 346.474 43.8074C346.755 43.8878 346.877 44.2189 346.715 44.4626L340.82 53.3239C340.634 53.6025 340.322 53.77 339.987 53.77H336.421C336.085 53.77 335.772 53.6015 335.586 53.3215L329.729 44.4628C329.567 44.2187 329.69 43.888 329.971 43.8076C330.248 43.7286 330.523 43.9363 330.523 44.224V59.17C330.523 59.7222 330.075 60.17 329.523 60.17H324.403Z" fill="#F5F6F6"/>
<path d="M375.3 50.01C374.947 50.01 374.621 49.8245 374.441 49.5217L364.792 33.3217C364.395 32.6551 364.875 31.81 365.651 31.81H371.506C371.867 31.81 372.201 32.0053 372.378 32.3207L379.536 45.0807C379.91 45.7473 379.428 46.57 378.664 46.57H376.319C375.555 46.57 375.073 45.7473 375.447 45.0807L382.605 32.3207C382.782 32.0053 383.115 31.81 383.477 31.81H389.165C389.942 31.81 390.423 32.6579 390.023 33.3245L380.303 49.5245C380.122 49.8257 379.796 50.01 379.445 50.01H375.3ZM374.891 60.17C374.339 60.17 373.891 59.7222 373.891 59.17V48.09C373.891 47.5377 374.339 47.09 374.891 47.09H380.051C380.604 47.09 381.051 47.5377 381.051 48.09V59.17C381.051 59.7222 380.604 60.17 380.051 60.17H374.891Z" fill="#F5F6F6"/>
<path d="M408.166 60.61C405.792 60.61 403.726 60.25 401.966 59.53C400.499 58.9206 399.137 58.0153 397.88 56.8139C397.492 56.4431 397.504 55.8288 397.882 55.4477L401 52.3023C401.397 51.9015 402.044 51.9123 402.463 52.2909C403.232 52.9874 404.04 53.5471 404.886 53.97C406.006 54.5033 407.272 54.77 408.686 54.77C409.886 54.77 410.806 54.57 411.446 54.17C412.112 53.7433 412.446 53.17 412.446 52.45C412.446 51.7833 412.206 51.2366 411.726 50.81C411.246 50.3566 410.606 49.97 409.806 49.65C409.032 49.3033 408.166 48.9833 407.206 48.69C406.272 48.37 405.326 47.9966 404.366 47.57C403.432 47.1166 402.566 46.57 401.766 45.93C400.992 45.29 400.366 44.49 399.886 43.53C399.406 42.57 399.166 41.3833 399.166 39.97C399.166 38.1566 399.592 36.61 400.446 35.33C401.326 34.05 402.539 33.0633 404.086 32.37C405.632 31.6766 407.432 31.33 409.486 31.33C411.539 31.33 413.432 31.6766 415.166 32.37C416.566 32.9301 417.766 33.6643 418.766 34.5725C419.163 34.9331 419.145 35.5481 418.764 35.9256L415.593 39.0691C415.202 39.4567 414.574 39.4508 414.155 39.0941C413.539 38.5701 412.916 38.1554 412.286 37.85C411.406 37.4233 410.446 37.21 409.406 37.21C408.419 37.21 407.646 37.3833 407.086 37.73C406.526 38.0766 406.246 38.57 406.246 39.21C406.246 39.85 406.486 40.37 406.966 40.77C407.446 41.17 408.072 41.53 408.846 41.85C409.646 42.1433 410.512 42.45 411.446 42.77C412.406 43.09 413.352 43.4633 414.286 43.89C415.219 44.3166 416.072 44.8633 416.846 45.53C417.646 46.1966 418.286 47.0366 418.766 48.05C419.246 49.0633 419.486 50.29 419.486 51.73C419.486 54.5566 418.486 56.7433 416.486 58.29C414.512 59.8366 411.739 60.61 408.166 60.61Z" fill="#F5F6F6"/>
<path d="M434.714 60.61C433.54 60.61 432.581 60.2233 431.834 59.45C431.087 58.6766 430.714 57.7166 430.714 56.57C430.714 55.4233 431.087 54.4633 431.834 53.69C432.581 52.9166 433.54 52.53 434.714 52.53C435.861 52.53 436.807 52.9166 437.554 53.69C438.301 54.4633 438.674 55.4233 438.674 56.57C438.674 57.7166 438.301 58.6766 437.554 59.45C436.807 60.2233 435.861 60.61 434.714 60.61Z" fill="#F5F6F6"/>
<path d="M457.102 60.17C456.55 60.17 456.102 59.7222 456.102 59.17V55.01C456.102 54.4577 456.55 54.01 457.102 54.01H462.902C464.502 54.01 465.889 53.7033 467.062 53.09C468.262 52.4766 469.182 51.57 469.822 50.37C470.462 49.1433 470.782 47.6633 470.782 45.93C470.782 44.2233 470.449 42.7833 469.782 41.61C469.142 40.41 468.236 39.5033 467.062 38.89C465.889 38.2766 464.502 37.97 462.902 37.97H456.782C456.23 37.97 455.782 37.5222 455.782 36.97V32.81C455.782 32.2577 456.23 31.81 456.782 31.81H462.942C465.129 31.81 467.142 32.1566 468.982 32.85C470.822 33.5166 472.422 34.4766 473.782 35.73C475.142 36.9833 476.196 38.4766 476.942 40.21C477.716 41.9433 478.102 43.8633 478.102 45.97C478.102 48.1033 477.716 50.0366 476.942 51.77C476.196 53.5033 475.142 54.9966 473.782 56.25C472.422 57.5033 470.822 58.4766 468.982 59.17C467.169 59.8366 465.182 60.17 463.022 60.17H457.102ZM452.262 60.17C451.71 60.17 451.262 59.7222 451.262 59.17V32.81C451.262 32.2577 451.71 31.81 452.262 31.81H457.422C457.975 31.81 458.422 32.2577 458.422 32.81V59.17C458.422 59.7222 457.975 60.17 457.422 60.17H452.262Z" fill="#F5F6F6"/>
<path d="M490.692 60.17C490.14 60.17 489.692 59.7222 489.692 59.17V32.81C489.692 32.2577 490.14 31.81 490.692 31.81H495.852C496.404 31.81 496.852 32.2577 496.852 32.81V59.17C496.852 59.7222 496.404 60.17 495.852 60.17H490.692ZM496.372 60.17C495.82 60.17 495.372 59.7222 495.372 59.17V55.13C495.372 54.5777 495.82 54.13 496.372 54.13H509.732C510.284 54.13 510.732 54.5777 510.732 55.13V59.17C510.732 59.7222 510.284 60.17 509.732 60.17H496.372ZM496.372 48.65C495.82 48.65 495.372 48.2022 495.372 47.65V43.77C495.372 43.2177 495.82 42.77 496.372 42.77H508.292C508.844 42.77 509.292 43.2177 509.292 43.77V47.65C509.292 48.2022 508.844 48.65 508.292 48.65H496.372ZM496.372 37.85C495.82 37.85 495.372 37.4022 495.372 36.85V32.81C495.372 32.2577 495.82 31.81 496.372 31.81H509.492C510.044 31.81 510.492 32.2577 510.492 32.81V36.85C510.492 37.4022 510.044 37.85 509.492 37.85H496.372Z" fill="#F5F6F6"/>
<path d="M531.515 60.17C531.099 60.17 530.726 59.912 530.579 59.5224L520.653 33.1624C520.406 32.5084 520.89 31.81 521.588 31.81H527.073C527.498 31.81 527.877 32.0789 528.017 32.4804L535.319 53.4004C535.546 54.0504 535.063 54.73 534.375 54.73H533.918C533.228 54.73 532.745 54.0468 532.976 53.396L540.387 32.476C540.529 32.0768 540.906 31.81 541.33 31.81H546.652C547.353 31.81 547.836 32.5113 547.587 33.1658L537.549 59.5258C537.401 59.9137 537.029 60.17 536.614 60.17H531.515Z" fill="#F5F6F6"/>
<path d="M212.961 91.9878V79.352H214.643V91.9878H212.961ZM214.106 86.4346V84.8688H220.585V86.4346H214.106ZM214.106 80.9178V79.352H220.889V80.9178H214.106Z" fill="#7DFFAF"/>
<path d="M231.384 86.4892V85.0509H234.748C235.476 85.0509 236.037 84.8627 236.43 84.4864C236.824 84.1102 237.021 83.6004 237.021 82.957C237.021 82.3501 236.824 81.8464 236.43 81.4458C236.049 81.0453 235.494 80.845 234.766 80.845H231.384V79.352H234.82C235.607 79.352 236.293 79.5098 236.878 79.8254C237.462 80.1288 237.91 80.5476 238.22 81.0817C238.542 81.6158 238.703 82.2287 238.703 82.9206C238.703 83.6368 238.542 84.2619 238.22 84.796C237.91 85.3301 237.462 85.7488 236.878 86.0523C236.293 86.3436 235.607 86.4892 234.82 86.4892H231.384ZM230.256 91.9878V79.352H231.938V91.9878H230.256ZM237.415 91.9878L232.905 86.3254L234.498 85.761L239.544 91.9878H237.415Z" fill="#7DFFAF"/>
<path d="M253.905 92.1699C253.023 92.1699 252.199 92.0061 251.436 91.6783C250.672 91.3385 250.004 90.8711 249.431 90.2764C248.859 89.6695 248.411 88.9715 248.089 88.1825C247.779 87.3935 247.624 86.5499 247.624 85.6517C247.624 84.7414 247.779 83.8977 248.089 83.1209C248.411 82.3319 248.853 81.64 249.413 81.0453C249.986 80.4505 250.648 79.9892 251.4 79.6615C252.164 79.3338 252.987 79.1699 253.87 79.1699C254.753 79.1699 255.57 79.3338 256.321 79.6615C257.085 79.9892 257.753 80.4505 258.326 81.0453C258.899 81.64 259.346 82.3319 259.668 83.1209C259.99 83.9099 260.151 84.7596 260.151 85.6699C260.151 86.5681 259.99 87.4118 259.668 88.2007C259.346 88.9897 258.899 89.6816 258.326 90.2764C257.765 90.8711 257.103 91.3385 256.339 91.6783C255.588 92.0061 254.776 92.1699 253.905 92.1699ZM253.87 90.5313C254.764 90.5313 255.546 90.3249 256.214 89.9122C256.894 89.4874 257.431 88.9108 257.825 88.1825C258.218 87.4421 258.415 86.5985 258.415 85.6517C258.415 84.9477 258.302 84.3044 258.075 83.7217C257.849 83.127 257.532 82.6111 257.127 82.1741C256.721 81.7371 256.244 81.4033 255.695 81.1727C255.146 80.93 254.538 80.8086 253.87 80.8086C252.987 80.8086 252.205 81.0149 251.525 81.4276C250.857 81.8403 250.326 82.4108 249.932 83.1391C249.551 83.8674 249.36 84.7049 249.36 85.6517C249.36 86.3557 249.467 87.0112 249.682 87.6181C249.909 88.2129 250.219 88.7287 250.613 89.1657C251.018 89.5906 251.495 89.9244 252.044 90.1671C252.605 90.4099 253.213 90.5313 253.87 90.5313Z" fill="#7DFFAF"/>
<path d="M269.617 91.9878V79.352H270.799L271.3 81.3366V91.9878H269.617ZM278.208 91.9878L270.584 81.6279L270.799 79.352L278.44 89.6937L278.208 91.9878ZM278.208 91.9878L277.706 90.1125V79.352H279.389V91.9878H278.208Z" fill="#7DFFAF"/>
<path d="M292.774 91.9878V79.7161H294.457V91.9878H292.774ZM288.551 80.9178V79.352H298.662V80.9178H288.551Z" fill="#7DFFAF"/>
<path d="M306.141 88.1279V86.5803H312.029V88.1279H306.141Z" fill="#7DFFAF"/>
<path d="M321.835 91.9878V79.352H323.517V91.9878H321.835ZM322.98 91.9878V90.422H330.103V91.9878H322.98ZM322.98 86.2708V84.7778H329.512V86.2708H322.98ZM322.98 80.9178V79.352H330.013V80.9178H322.98Z" fill="#7DFFAF"/>
<path d="M339.549 91.9878V79.352H340.73L341.231 81.3366V91.9878H339.549ZM348.139 91.9878L340.515 81.6279L340.73 79.352L348.372 89.6937L348.139 91.9878ZM348.139 91.9878L347.638 90.1125V79.352H349.32V91.9878H348.139Z" fill="#7DFFAF"/>
<path d="M360.523 91.9878V90.422H363.977C364.895 90.422 365.701 90.2217 366.393 89.8212C367.085 89.4085 367.622 88.8441 368.003 88.1279C368.397 87.4118 368.594 86.5864 368.594 85.6517C368.594 84.7292 368.397 83.9099 368.003 83.1937C367.61 82.4776 367.067 81.9192 366.375 81.5187C365.683 81.1181 364.884 80.9178 363.977 80.9178H360.541V79.352H364.013C364.919 79.352 365.754 79.5098 366.518 79.8254C367.294 80.141 367.962 80.584 368.522 81.1545C369.095 81.725 369.537 82.3926 369.847 83.1573C370.169 83.922 370.33 84.7596 370.33 85.6699C370.33 86.5681 370.169 87.4057 369.847 88.1825C369.537 88.9472 369.101 89.6148 368.54 90.1853C367.98 90.7558 367.311 91.1989 366.536 91.5145C365.772 91.8301 364.943 91.9878 364.048 91.9878H360.523ZM359.413 91.9878V79.352H361.095V91.9878H359.413Z" fill="#7DFFAF"/>
<path d="M391.81 91.9878V90.422H395.264C396.182 90.422 396.988 90.2217 397.68 89.8212C398.372 89.4085 398.909 88.8441 399.29 88.1279C399.684 87.4118 399.881 86.5864 399.881 85.6517C399.881 84.7292 399.684 83.9099 399.29 83.1937C398.897 82.4776 398.354 81.9192 397.662 81.5187C396.97 81.1181 396.171 80.9178 395.264 80.9178H391.828V79.352H395.3C396.206 79.352 397.041 79.5098 397.805 79.8254C398.581 80.141 399.249 80.584 399.809 81.1545C400.382 81.725 400.824 82.3926 401.134 83.1573C401.456 83.922 401.617 84.7596 401.617 85.6699C401.617 86.5681 401.456 87.4057 401.134 88.1825C400.824 88.9472 400.388 89.6148 399.827 90.1853C399.267 90.7558 398.598 91.1989 397.823 91.5145C397.059 91.8301 396.23 91.9878 395.335 91.9878H391.81ZM390.7 91.9878V79.352H392.382V91.9878H390.7Z" fill="#7DFFAF"/>
<path d="M411.106 91.9878V79.352H412.788V91.9878H411.106ZM412.251 91.9878V90.422H419.374V91.9878H412.251ZM412.251 86.2708V84.7778H418.784V86.2708H412.251ZM412.251 80.9178V79.352H419.285V80.9178H412.251Z" fill="#7DFFAF"/>
<path d="M432.638 91.9878L427.663 79.352H429.489L433.587 90.0397H432.925L437.059 79.352H438.866L433.855 91.9878H432.638Z" fill="#7DFFAF"/>
<path d="M448.056 91.9878V79.352H449.738V91.9878H448.056ZM449.201 91.9878V90.422H456.324V91.9878H449.201ZM449.201 86.2708V84.7778H455.733V86.2708H449.201ZM449.201 80.9178V79.352H456.234V80.9178H449.201Z" fill="#7DFFAF"/>
<path d="M465.77 91.9878V79.352H467.452V91.9878H465.77ZM466.915 91.9878V90.422H473.573V91.9878H466.915Z" fill="#7DFFAF"/>
<path d="M487.375 92.1699C486.492 92.1699 485.669 92.0061 484.905 91.6783C484.141 91.3385 483.473 90.8711 482.901 90.2764C482.328 89.6695 481.881 88.9715 481.558 88.1825C481.248 87.3935 481.093 86.5499 481.093 85.6517C481.093 84.7414 481.248 83.8977 481.558 83.1209C481.881 82.3319 482.322 81.64 482.883 81.0453C483.455 80.4505 484.118 79.9892 484.869 79.6615C485.633 79.3338 486.456 79.1699 487.339 79.1699C488.222 79.1699 489.039 79.3338 489.791 79.6615C490.554 79.9892 491.222 80.4505 491.795 81.0453C492.368 81.64 492.815 82.3319 493.137 83.1209C493.459 83.9099 493.62 84.7596 493.62 85.6699C493.62 86.5681 493.459 87.4118 493.137 88.2007C492.815 88.9897 492.368 89.6816 491.795 90.2764C491.234 90.8711 490.572 91.3385 489.809 91.6783C489.057 92.0061 488.246 92.1699 487.375 92.1699ZM487.339 90.5313C488.234 90.5313 489.015 90.3249 489.683 89.9122C490.363 89.4874 490.9 88.9108 491.294 88.1825C491.688 87.4421 491.885 86.5985 491.885 85.6517C491.885 84.9477 491.771 84.3044 491.544 83.7217C491.318 83.127 491.002 82.6111 490.596 82.1741C490.19 81.7371 489.713 81.4033 489.164 81.1727C488.615 80.93 488.007 80.8086 487.339 80.8086C486.456 80.8086 485.675 81.0149 484.994 81.4276C484.326 81.8403 483.795 82.4108 483.402 83.1391C483.02 83.8674 482.829 84.7049 482.829 85.6517C482.829 86.3557 482.936 87.0112 483.151 87.6181C483.378 88.2129 483.688 88.7287 484.082 89.1657C484.487 89.5906 484.965 89.9244 485.513 90.1671C486.074 90.4099 486.683 90.5313 487.339 90.5313Z" fill="#7DFFAF"/>
<path d="M504.214 87.0719V85.5789H507.596C508.062 85.5789 508.473 85.4818 508.831 85.2876C509.201 85.0934 509.488 84.8202 509.69 84.4682C509.905 84.1162 510.012 83.6975 510.012 83.2119C510.012 82.7264 509.905 82.3076 509.69 81.9556C509.488 81.6036 509.201 81.3305 508.831 81.1363C508.473 80.9421 508.062 80.845 507.596 80.845H504.214V79.352H507.704C508.467 79.352 509.147 79.5098 509.744 79.8254C510.353 80.141 510.83 80.5901 511.176 81.1727C511.534 81.7432 511.713 82.423 511.713 83.2119C511.713 83.9888 511.534 84.6685 511.176 85.2512C510.83 85.8216 510.353 86.2708 509.744 86.5985C509.147 86.9141 508.467 87.0719 507.704 87.0719H504.214ZM503.087 91.9878V79.352H504.769V91.9878H503.087Z" fill="#7DFFAF"/>
<path d="M520.958 91.9878V79.352H522.641V91.9878H520.958ZM522.104 91.9878V90.422H529.226V91.9878H522.104ZM522.104 86.2708V84.7778H528.636V86.2708H522.104ZM522.104 80.9178V79.352H529.137V80.9178H522.104Z" fill="#7DFFAF"/>
<path d="M539.8 86.4892V85.0509H543.165C543.893 85.0509 544.453 84.8627 544.847 84.4864C545.241 84.1102 545.438 83.6004 545.438 82.957C545.438 82.3501 545.241 81.8464 544.847 81.4458C544.465 81.0453 543.911 80.845 543.183 80.845H539.8V79.352H543.236C544.024 79.352 544.71 79.5098 545.295 79.8254C545.879 80.1288 546.327 80.5476 546.637 81.0817C546.959 81.6158 547.12 82.2287 547.12 82.9206C547.12 83.6368 546.959 84.2619 546.637 84.796C546.327 85.3301 545.879 85.7488 545.295 86.0523C544.71 86.3436 544.024 86.4892 543.236 86.4892H539.8ZM538.673 91.9878V79.352H540.355V91.9878H538.673ZM545.831 91.9878L541.322 86.3254L542.914 85.761L547.961 91.9878H545.831Z" fill="#7DFFAF"/>
<defs>
<linearGradient id="paint0_linear_1106_656" x1="90.681" y1="0.5" x2="90.681" y2="123" gradientUnits="userSpaceOnUse">
<stop stop-color="#7DFFAF"/>
<stop offset="1" stop-color="#9955E8"/>
</linearGradient>
<linearGradient id="paint1_linear_1106_656" x1="90.681" y1="0.5" x2="90.681" y2="123" gradientUnits="userSpaceOnUse">
<stop stop-color="#7DFFAF"/>
<stop offset="1" stop-color="#9955E8"/>
</linearGradient>
</defs>
</svg>
