<svg width="549" height="123" viewBox="0 0 549 123" fill="none" xmlns="http://www.w3.org/2000/svg">
<path d="M42.7509 0C41.6609 0 40.7716 0.872759 40.7512 1.96253L40.2532 28.5385L5.1732 42.8585C3.52047 43.5332 3.5125 45.8707 5.16059 46.5567L40.788 61.3846V89C40.788 90.1046 41.6834 91 42.788 91H64.5447C65.3739 91 66.1171 90.4883 66.413 89.7137L99.6445 2.71365C100.145 1.40432 99.1777 0 97.7762 0H42.7509Z" fill="url(#paint0_linear_1106_650)"/>
<path fill-rule="evenodd" clip-rule="evenodd" d="M47.1657 33.2775L19.0492 44.755L47.788 56.7159V84H61.1022L90.514 7H47.658L47.1657 33.2775ZM42.7509 0C41.6609 0 40.7716 0.872759 40.7512 1.96253L40.2532 28.5385L5.1732 42.8585C3.52047 43.5332 3.5125 45.8707 5.16059 46.5567L40.788 61.3846V89C40.788 90.1046 41.6834 91 42.788 91H64.5447C65.3739 91 66.1171 90.4883 66.413 89.7137L99.6445 2.71365C100.145 1.40432 99.1777 0 97.7762 0H42.7509Z" fill="#171023"/>
<path d="M138.611 91C139.701 91 140.59 90.1272 140.611 89.0375L141.109 62.4615L176.189 48.1415C177.842 47.4668 177.85 45.1293 176.201 44.4433L140.574 29.6154V2C140.574 0.895431 139.679 0 138.574 0H116.817C115.988 0 115.245 0.511703 114.949 1.28634L81.7176 88.2863C81.2174 89.5957 82.1843 91 83.5859 91H138.611Z" fill="url(#paint1_linear_1106_650)"/>
<path fill-rule="evenodd" clip-rule="evenodd" d="M134.196 57.7225L162.313 46.245L133.574 34.2841V7H120.26L90.8481 84H133.704L134.196 57.7225ZM138.611 91C139.701 91 140.59 90.1272 140.611 89.0375L141.109 62.4615L176.189 48.1415C177.842 47.4668 177.85 45.1293 176.201 44.4433L140.574 29.6154V2C140.574 0.895431 139.679 0 138.574 0H116.817C115.988 0 115.245 0.511703 114.949 1.28634L81.7176 88.2863C81.2174 89.5957 82.1843 91 83.5859 91H138.611Z" fill="#171023"/>
<path fill-rule="evenodd" clip-rule="evenodd" d="M42.861 98.7931C42.861 97.6665 43.7218 96.5 45.081 96.5H47.181C48.0095 96.5 48.681 97.1716 48.681 98V98.09C48.681 98.8687 48.0498 99.5 47.271 99.5C46.4923 99.5 45.861 100.131 45.861 100.91V106.724C45.861 107.39 45.5782 108.061 45.0284 108.515L43.8362 109.5L45.0284 110.485C45.5782 110.939 45.861 111.61 45.861 112.276V118.09C45.861 118.869 46.4923 119.5 47.271 119.5C48.0498 119.5 48.681 120.131 48.681 120.91V121C48.681 121.828 48.0095 122.5 47.181 122.5H45.081C43.7218 122.5 42.861 121.334 42.861 120.207V113.528C42.861 112.931 42.5947 112.366 42.1349 111.986L41.1986 111.212C41.0325 111.075 40.8237 111 40.6081 111C40.0961 111 39.681 110.585 39.681 110.073V108.927C39.681 108.415 40.0961 108 40.6081 108C40.8237 108 41.0325 107.925 41.1986 107.788L42.1349 107.014C42.5947 106.634 42.861 106.069 42.861 105.472V98.7931Z" fill="#171023"/>
<path fill-rule="evenodd" clip-rule="evenodd" d="M138.501 98.7931C138.501 97.6665 137.64 96.5 136.281 96.5H134.181C133.353 96.5 132.681 97.1716 132.681 98V98.09C132.681 98.8687 133.312 99.5 134.091 99.5C134.87 99.5 135.501 100.131 135.501 100.91V106.724C135.501 107.39 135.784 108.061 136.334 108.515L137.526 109.5L136.334 110.485C135.784 110.939 135.501 111.61 135.501 112.276V118.09C135.501 118.869 134.87 119.5 134.091 119.5C133.312 119.5 132.681 120.131 132.681 120.91V121C132.681 121.828 133.353 122.5 134.181 122.5H136.281C137.64 122.5 138.501 121.334 138.501 120.207V113.528C138.501 112.931 138.767 112.366 139.227 111.986L140.163 111.212C140.33 111.075 140.538 111 140.754 111C141.266 111 141.681 110.585 141.681 110.073V108.927C141.681 108.415 141.266 108 140.754 108C140.538 108 140.33 107.925 140.163 107.788L139.227 107.014C138.767 106.634 138.501 106.069 138.501 105.472V98.7931Z" fill="#171023"/>
<path d="M50.8017 100.371C50.8017 99.8184 51.2494 99.3707 51.8017 99.3707H53.5086C54.0609 99.3707 54.5086 99.8184 54.5086 100.371V102.078C54.5086 102.63 54.0609 103.078 53.5086 103.078H51.8017C51.2494 103.078 50.8017 102.63 50.8017 102.078V100.371Z" fill="#171023"/>
<path d="M50.8017 105.56C50.8017 105.008 51.2494 104.56 51.8017 104.56H53.5086C54.0609 104.56 54.5086 105.008 54.5086 105.56V107.267C54.5086 107.82 54.0609 108.267 53.5086 108.267H51.8017C51.2494 108.267 50.8017 107.82 50.8017 107.267V105.56Z" fill="#171023"/>
<path d="M50.8017 116.681C50.8017 116.129 51.2494 115.681 51.8017 115.681H53.5086C54.0609 115.681 54.5086 116.129 54.5086 116.681V118.388C54.5086 118.94 54.0609 119.388 53.5086 119.388H51.8017C51.2494 119.388 50.8017 118.94 50.8017 118.388V116.681Z" fill="#171023"/>
<path d="M50.8017 110.75C50.8017 110.198 51.2494 109.75 51.8017 109.75H59.4396C59.9919 109.75 60.4396 110.198 60.4396 110.75V112.457C60.4396 113.009 59.9919 113.457 59.4396 113.457H51.8017C51.2494 113.457 50.8017 113.009 50.8017 112.457V110.75Z" fill="#171023"/>
<path d="M61.9224 116.681C61.9224 116.129 62.3701 115.681 62.9224 115.681H80.9396C81.4919 115.681 81.9396 116.129 81.9396 116.681V118.388C81.9396 118.94 81.4919 119.388 80.9396 119.388H62.9224C62.3701 119.388 61.9224 118.94 61.9224 118.388V116.681Z" fill="#171023"/>
<path d="M56.7328 100.371C56.7328 99.8184 57.1805 99.3707 57.7328 99.3707H59.4397C59.9919 99.3707 60.4397 99.8184 60.4397 100.371V102.078C60.4397 102.63 59.9919 103.078 59.4397 103.078H57.7328C57.1805 103.078 56.7328 102.63 56.7328 102.078V100.371Z" fill="#171023"/>
<path d="M56.7328 105.56C56.7328 105.008 57.1805 104.56 57.7328 104.56H59.4397C59.9919 104.56 60.4397 105.008 60.4397 105.56V107.267C60.4397 107.82 59.9919 108.267 59.4397 108.267H57.7328C57.1805 108.267 56.7328 107.82 56.7328 107.267V105.56Z" fill="#171023"/>
<path d="M56.7328 116.681C56.7328 116.129 57.1805 115.681 57.7328 115.681H59.4397C59.9919 115.681 60.4397 116.129 60.4397 116.681V118.388C60.4397 118.94 59.9919 119.388 59.4397 119.388H57.7328C57.1805 119.388 56.7328 118.94 56.7328 118.388V116.681Z" fill="#171023"/>
<path d="M61.9224 100.371C61.9224 99.8184 62.3701 99.3707 62.9224 99.3707H64.6293C65.1816 99.3707 65.6293 99.8184 65.6293 100.371V102.078C65.6293 102.63 65.1816 103.078 64.6293 103.078H62.9224C62.3701 103.078 61.9224 102.63 61.9224 102.078V100.371Z" fill="#171023"/>
<path d="M61.9224 105.56C61.9224 105.008 62.3701 104.56 62.9224 104.56H64.6293C65.1816 104.56 65.6293 105.008 65.6293 105.56V107.267C65.6293 107.82 65.1816 108.267 64.6293 108.267H62.9224C62.3701 108.267 61.9224 107.82 61.9224 107.267V105.56Z" fill="#171023"/>
<path d="M61.9224 110.75C61.9224 110.198 62.3701 109.75 62.9224 109.75H64.6293C65.1816 109.75 65.6293 110.198 65.6293 110.75V112.457C65.6293 113.009 65.1816 113.457 64.6293 113.457H62.9224C62.3701 113.457 61.9224 113.009 61.9224 112.457V110.75Z" fill="#171023"/>
<path d="M67.8534 100.371C67.8534 99.8184 68.3011 99.3707 68.8534 99.3707H70.5603C71.1126 99.3707 71.5603 99.8184 71.5603 100.371V102.078C71.5603 102.63 71.1126 103.078 70.5603 103.078H68.8534C68.3011 103.078 67.8534 102.63 67.8534 102.078V100.371Z" fill="#171023"/>
<path d="M96.7672 100.371C96.7672 99.8184 97.2149 99.3707 97.7672 99.3707H99.4741C100.026 99.3707 100.474 99.8184 100.474 100.371V102.078C100.474 102.63 100.026 103.078 99.4741 103.078H97.7672C97.2149 103.078 96.7672 102.63 96.7672 102.078V100.371Z" fill="#171023"/>
<path d="M96.7672 105.56C96.7672 105.008 97.2149 104.56 97.7672 104.56H99.4741C100.026 104.56 100.474 105.008 100.474 105.56V107.267C100.474 107.82 100.026 108.267 99.4741 108.267H97.7672C97.2149 108.267 96.7672 107.82 96.7672 107.267V105.56Z" fill="#171023"/>
<path d="M96.7672 116.681C96.7672 116.129 97.2149 115.681 97.7672 115.681H99.4741C100.026 115.681 100.474 116.129 100.474 116.681V118.388C100.474 118.94 100.026 119.388 99.4741 119.388H97.7672C97.2149 119.388 96.7672 118.94 96.7672 118.388V116.681Z" fill="#171023"/>
<path d="M116.043 100.371C116.043 99.8184 116.491 99.3707 117.043 99.3707H118.75C119.302 99.3707 119.75 99.8184 119.75 100.371V102.078C119.75 102.63 119.302 103.078 118.75 103.078H117.043C116.491 103.078 116.043 102.63 116.043 102.078V100.371Z" fill="#171023"/>
<path d="M116.043 105.56C116.043 105.008 116.491 104.56 117.043 104.56H118.75C119.302 104.56 119.75 105.008 119.75 105.56V107.267C119.75 107.82 119.302 108.267 118.75 108.267H117.043C116.491 108.267 116.043 107.82 116.043 107.267V105.56Z" fill="#171023"/>
<path d="M116.043 110.75C116.043 110.198 116.491 109.75 117.043 109.75H118.75C119.302 109.75 119.75 110.198 119.75 110.75V112.457C119.75 113.009 119.302 113.457 118.75 113.457H117.043C116.491 113.457 116.043 113.009 116.043 112.457V110.75Z" fill="#171023"/>
<path d="M116.043 116.681C116.043 116.129 116.491 115.681 117.043 115.681H118.75C119.302 115.681 119.75 116.129 119.75 116.681V118.388C119.75 118.94 119.302 119.388 118.75 119.388H117.043C116.491 119.388 116.043 118.94 116.043 118.388V116.681Z" fill="#171023"/>
<path d="M67.8534 105.56C67.8534 105.008 68.3011 104.56 68.8534 104.56H70.5603C71.1126 104.56 71.5603 105.008 71.5603 105.56V107.267C71.5603 107.82 71.1126 108.267 70.5603 108.267H68.8534C68.3011 108.267 67.8534 107.82 67.8534 107.267V105.56Z" fill="#171023"/>
<path d="M67.8534 110.75C67.8534 110.198 68.3011 109.75 68.8534 109.75H70.5603C71.1126 109.75 71.5603 110.198 71.5603 110.75V112.457C71.5603 113.009 71.1126 113.457 70.5603 113.457H68.8534C68.3011 113.457 67.8534 113.009 67.8534 112.457V110.75Z" fill="#171023"/>
<path d="M73.0431 100.371C73.0431 99.8184 73.4908 99.3707 74.0431 99.3707H75.75C76.3022 99.3707 76.75 99.8184 76.75 100.371V102.078C76.75 102.63 76.3022 103.078 75.75 103.078H74.0431C73.4908 103.078 73.0431 102.63 73.0431 102.078V100.371Z" fill="#171023"/>
<path d="M101.957 100.371C101.957 99.8184 102.405 99.3707 102.957 99.3707H104.664C105.216 99.3707 105.664 99.8184 105.664 100.371V102.078C105.664 102.63 105.216 103.078 104.664 103.078H102.957C102.405 103.078 101.957 102.63 101.957 102.078V100.371Z" fill="#171023"/>
<path d="M101.957 105.56C101.957 105.008 102.405 104.56 102.957 104.56H104.664C105.216 104.56 105.664 105.008 105.664 105.56V107.267C105.664 107.82 105.216 108.267 104.664 108.267H102.957C102.405 108.267 101.957 107.82 101.957 107.267V105.56Z" fill="#171023"/>
<path d="M101.957 111.491C101.957 110.939 102.405 110.491 102.957 110.491H104.664C105.216 110.491 105.664 110.939 105.664 111.491V113.198C105.664 113.751 105.216 114.198 104.664 114.198H102.957C102.405 114.198 101.957 113.751 101.957 113.198V111.491Z" fill="#171023"/>
<path d="M101.957 116.681C101.957 116.129 102.405 115.681 102.957 115.681H104.664C105.216 115.681 105.664 116.129 105.664 116.681V118.388C105.664 118.94 105.216 119.388 104.664 119.388H102.957C102.405 119.388 101.957 118.94 101.957 118.388V116.681Z" fill="#171023"/>
<path d="M121.233 100.371C121.233 99.8184 121.68 99.3707 122.233 99.3707H123.94C124.492 99.3707 124.94 99.8184 124.94 100.371V102.078C124.94 102.63 124.492 103.078 123.94 103.078H122.233C121.68 103.078 121.233 102.63 121.233 102.078V100.371Z" fill="#171023"/>
<path d="M121.233 105.56C121.233 105.008 121.68 104.56 122.233 104.56H123.94C124.492 104.56 124.94 105.008 124.94 105.56V107.267C124.94 107.82 124.492 108.267 123.94 108.267H122.233C121.68 108.267 121.233 107.82 121.233 107.267V105.56Z" fill="#171023"/>
<path d="M121.233 110.75C121.233 110.198 121.68 109.75 122.233 109.75H123.94C124.492 109.75 124.94 110.198 124.94 110.75V112.457C124.94 113.009 124.492 113.457 123.94 113.457H122.233C121.68 113.457 121.233 113.009 121.233 112.457V110.75Z" fill="#171023"/>
<path d="M126.422 110.75C126.422 110.198 126.87 109.75 127.422 109.75H129.129C129.682 109.75 130.129 110.198 130.129 110.75V118.388C130.129 118.94 129.682 119.388 129.129 119.388H127.422C126.87 119.388 126.422 118.94 126.422 118.388V110.75Z" fill="#171023"/>
<path d="M121.233 116.681C121.233 116.129 121.68 115.681 122.233 115.681H123.94C124.492 115.681 124.94 116.129 124.94 116.681V118.388C124.94 118.94 124.492 119.388 123.94 119.388H122.233C121.68 119.388 121.233 118.94 121.233 118.388V116.681Z" fill="#171023"/>
<path d="M84.1638 100.371C84.1638 99.8184 84.6115 99.3707 85.1638 99.3707H86.8707C87.423 99.3707 87.8707 99.8184 87.8707 100.371V102.078C87.8707 102.63 87.423 103.078 86.8707 103.078H85.1638C84.6115 103.078 84.1638 102.63 84.1638 102.078V100.371Z" fill="#171023"/>
<path d="M73.0431 105.56C73.0431 105.008 73.4908 104.56 74.0431 104.56H75.75C76.3022 104.56 76.75 105.008 76.75 105.56V107.267C76.75 107.82 76.3022 108.267 75.75 108.267H74.0431C73.4908 108.267 73.0431 107.82 73.0431 107.267V105.56Z" fill="#171023"/>
<path d="M73.0431 110.75C73.0431 110.198 73.4908 109.75 74.0431 109.75H75.75C76.3022 109.75 76.75 110.198 76.75 110.75V112.457C76.75 113.009 76.3022 113.457 75.75 113.457H74.0431C73.4908 113.457 73.0431 113.009 73.0431 112.457V110.75Z" fill="#171023"/>
<path d="M78.2327 100.371C78.2327 99.8184 78.6805 99.3707 79.2327 99.3707H80.9396C81.4919 99.3707 81.9396 99.8184 81.9396 100.371V102.078C81.9396 102.63 81.4919 103.078 80.9396 103.078H79.2327C78.6805 103.078 78.2327 102.63 78.2327 102.078V100.371Z" fill="#171023"/>
<path d="M107.147 100.371C107.147 99.8184 107.594 99.3707 108.147 99.3707H109.853C110.406 99.3707 110.853 99.8184 110.853 100.371V102.078C110.853 102.63 110.406 103.078 109.853 103.078H108.147C107.594 103.078 107.147 102.63 107.147 102.078V100.371Z" fill="#171023"/>
<path d="M107.147 105.56C107.147 105.008 107.594 104.56 108.147 104.56H109.853C110.406 104.56 110.853 105.008 110.853 105.56V107.267C110.853 107.82 110.406 108.267 109.853 108.267H108.147C107.594 108.267 107.147 107.82 107.147 107.267V105.56Z" fill="#171023"/>
<path d="M107.147 116.681C107.147 116.129 107.594 115.681 108.147 115.681H109.853C110.406 115.681 110.853 116.129 110.853 116.681V118.388C110.853 118.94 110.406 119.388 109.853 119.388H108.147C107.594 119.388 107.147 118.94 107.147 118.388V116.681Z" fill="#171023"/>
<path d="M126.422 100.371C126.422 99.8184 126.87 99.3707 127.422 99.3707H129.129C129.682 99.3707 130.129 99.8184 130.129 100.371V102.078C130.129 102.63 129.682 103.078 129.129 103.078H127.422C126.87 103.078 126.422 102.63 126.422 102.078V100.371Z" fill="#171023"/>
<path d="M126.422 105.56C126.422 105.008 126.87 104.56 127.422 104.56H129.129C129.682 104.56 130.129 105.008 130.129 105.56V107.267C130.129 107.82 129.682 108.267 129.129 108.267H127.422C126.87 108.267 126.422 107.82 126.422 107.267V105.56Z" fill="#171023"/>
<path d="M89.3534 100.371C89.3534 99.8184 89.8011 99.3707 90.3534 99.3707H92.0603C92.6126 99.3707 93.0603 99.8184 93.0603 100.371V102.078C93.0603 102.63 92.6126 103.078 92.0603 103.078H90.3534C89.8011 103.078 89.3534 102.63 89.3534 102.078V100.371Z" fill="#171023"/>
<path d="M78.2327 105.56C78.2327 105.008 78.6805 104.56 79.2327 104.56H80.9396C81.4919 104.56 81.9396 105.008 81.9396 105.56V107.267C81.9396 107.82 81.4919 108.267 80.9396 108.267H79.2327C78.6805 108.267 78.2327 107.82 78.2327 107.267V105.56Z" fill="#171023"/>
<path d="M84.1638 110.75C84.1638 110.198 84.6115 109.75 85.1638 109.75H86.8707C87.423 109.75 87.8707 110.198 87.8707 110.75V112.457C87.8707 113.009 87.423 113.457 86.8707 113.457H85.1638C84.6115 113.457 84.1638 113.009 84.1638 112.457V110.75Z" fill="#171023"/>
<path d="M89.3534 108.267H93.0603V112.457C93.0603 113.009 92.6126 113.457 92.0603 113.457H90.3534C89.8012 113.457 89.3534 113.009 89.3534 112.457V108.267Z" fill="#171023"/>
<path d="M84.1638 105.56C84.1638 105.008 84.6115 104.56 85.1638 104.56H92.0603C92.6126 104.56 93.0603 105.008 93.0603 105.56V108.267L85.1638 108.267C84.6115 108.267 84.1638 107.82 84.1638 107.267V105.56Z" fill="#171023"/>
<path d="M78.2327 110.75C78.2327 110.198 78.6805 109.75 79.2327 109.75H80.9396C81.4919 109.75 81.9396 110.198 81.9396 110.75V112.457C81.9396 113.009 81.4919 113.457 80.9396 113.457H79.2327C78.6805 113.457 78.2327 113.009 78.2327 112.457V110.75Z" fill="#171023"/>
<path d="M84.1638 116.681C84.1638 116.129 84.6115 115.681 85.1638 115.681H86.8707C87.423 115.681 87.8707 116.129 87.8707 116.681V118.388C87.8707 118.94 87.423 119.388 86.8707 119.388H85.1638C84.6115 119.388 84.1638 118.94 84.1638 118.388V116.681Z" fill="#171023"/>
<path d="M89.3534 116.681C89.3534 116.129 89.8011 115.681 90.3534 115.681H92.0603C92.6126 115.681 93.0603 116.129 93.0603 116.681V118.388C93.0603 118.94 92.6126 119.388 92.0603 119.388H90.3534C89.8011 119.388 89.3534 118.94 89.3534 118.388V116.681Z" fill="#171023"/>
<path d="M222.361 59.6701C221.809 59.6701 221.361 59.2224 221.361 58.6701V32.5101C221.361 31.9578 221.809 31.5101 222.361 31.5101H227.521C228.073 31.5101 228.521 31.9578 228.521 32.5101V58.6701C228.521 59.2224 228.073 59.6701 227.521 59.6701H222.361ZM213.681 37.4701C213.129 37.4701 212.681 37.0224 212.681 36.4701V32.3101C212.681 31.7578 213.129 31.3101 213.681 31.3101H236.201C236.753 31.3101 237.201 31.7578 237.201 32.3101V36.4701C237.201 37.0224 236.753 37.4701 236.201 37.4701H213.681Z" fill="#171023"/>
<path d="M249.458 59.6701C248.905 59.6701 248.458 59.2224 248.458 58.6701V32.3101C248.458 31.7578 248.905 31.3101 249.458 31.3101H254.618C255.17 31.3101 255.618 31.7578 255.618 32.3101V58.6701C255.618 59.2224 255.17 59.6701 254.618 59.6701H249.458ZM266.818 59.6701C266.265 59.6701 265.818 59.2224 265.818 58.6701V32.3101C265.818 31.7578 266.265 31.3101 266.818 31.3101H271.978C272.53 31.3101 272.978 31.7578 272.978 32.3101V58.6701C272.978 59.2224 272.53 59.6701 271.978 59.6701H266.818ZM253.538 48.1501C252.985 48.1501 252.538 47.7024 252.538 47.1501V43.1501C252.538 42.5978 252.985 42.1501 253.538 42.1501H267.418C267.97 42.1501 268.418 42.5978 268.418 43.1501V47.1501C268.418 47.7024 267.97 48.1501 267.418 48.1501H253.538Z" fill="#171023"/>
<path d="M285.408 59.6701C284.705 59.6701 284.222 58.9639 284.476 58.3085L294.7 31.9485C294.85 31.5637 295.22 31.3101 295.633 31.3101H301.18C301.595 31.3101 301.966 31.5653 302.114 31.9519L312.227 58.3119C312.478 58.9668 311.995 59.6701 311.293 59.6701H305.981C305.555 59.6701 305.175 59.399 305.036 58.9953L297.489 37.0545C297.283 36.4547 297.728 35.8301 298.363 35.8301C299 35.8301 299.446 36.46 299.234 37.061L291.503 59.0024C291.362 59.4025 290.984 59.6701 290.56 59.6701H285.408ZM291.628 54.7101C291.076 54.7101 290.628 54.2624 290.628 53.7101V50.0301C290.628 49.4778 291.076 49.0301 291.628 49.0301H305.268C305.82 49.0301 306.268 49.4778 306.268 50.0301V53.7101C306.268 54.2624 305.82 54.7101 305.268 54.7101H291.628Z" fill="#171023"/>
<path d="M324.403 59.6701C323.851 59.6701 323.403 59.2224 323.403 58.6701V32.3101C323.403 31.7578 323.851 31.3101 324.403 31.3101H328.026C328.361 31.3101 328.674 31.4784 328.859 31.7582L338.769 46.7317C339.058 47.1679 338.745 47.7501 338.222 47.7501C337.699 47.7501 337.386 47.1689 337.674 46.7326L347.547 31.7596C347.732 31.479 348.045 31.3101 348.381 31.3101H352.003C352.555 31.3101 353.003 31.7578 353.003 32.3101V58.6701C353.003 59.2224 352.555 59.6701 352.003 59.6701H346.923C346.371 59.6701 345.923 59.2224 345.923 58.6701V43.7232C345.923 43.436 346.198 43.2286 346.474 43.3075C346.755 43.3879 346.877 43.719 346.715 43.9627L340.82 52.824C340.634 53.1026 340.322 53.2701 339.987 53.2701H336.421C336.085 53.2701 335.772 53.1016 335.586 52.8216L329.729 43.9629C329.567 43.7188 329.69 43.3882 329.971 43.3078C330.248 43.2287 330.523 43.4364 330.523 43.7241V58.6701C330.523 59.2224 330.075 59.6701 329.523 59.6701H324.403Z" fill="#171023"/>
<path d="M375.3 49.5101C374.947 49.5101 374.621 49.3246 374.441 49.0218L364.792 32.8218C364.395 32.1552 364.875 31.3101 365.651 31.3101H371.506C371.867 31.3101 372.201 31.5054 372.378 31.8208L379.536 44.5808C379.91 45.2474 379.428 46.0701 378.664 46.0701H376.319C375.555 46.0701 375.073 45.2474 375.447 44.5808L382.605 31.8208C382.782 31.5054 383.115 31.3101 383.477 31.3101H389.165C389.942 31.3101 390.423 32.158 390.023 32.8246L380.303 49.0246C380.122 49.3258 379.796 49.5101 379.445 49.5101H375.3ZM374.891 59.6701C374.339 59.6701 373.891 59.2224 373.891 58.6701V47.5901C373.891 47.0378 374.339 46.5901 374.891 46.5901H380.051C380.604 46.5901 381.051 47.0378 381.051 47.5901V58.6701C381.051 59.2224 380.604 59.6701 380.051 59.6701H374.891Z" fill="#171023"/>
<path d="M408.166 60.1101C405.792 60.1101 403.726 59.7501 401.966 59.0301C400.499 58.4208 399.137 57.5154 397.88 56.314C397.492 55.9432 397.504 55.329 397.882 54.9478L401 51.8024C401.397 51.4017 402.044 51.4124 402.463 51.7911C403.232 52.4876 404.04 53.0472 404.886 53.4701C406.006 54.0034 407.272 54.2701 408.686 54.2701C409.886 54.2701 410.806 54.0701 411.446 53.6701C412.112 53.2434 412.446 52.6701 412.446 51.9501C412.446 51.2834 412.206 50.7367 411.726 50.3101C411.246 49.8567 410.606 49.4701 409.806 49.1501C409.032 48.8034 408.166 48.4834 407.206 48.1901C406.272 47.8701 405.326 47.4967 404.366 47.0701C403.432 46.6167 402.566 46.0701 401.766 45.4301C400.992 44.7901 400.366 43.9901 399.886 43.0301C399.406 42.0701 399.166 40.8834 399.166 39.4701C399.166 37.6567 399.592 36.1101 400.446 34.8301C401.326 33.5501 402.539 32.5634 404.086 31.8701C405.632 31.1767 407.432 30.8301 409.486 30.8301C411.539 30.8301 413.432 31.1767 415.166 31.8701C416.566 32.4302 417.766 33.1644 418.766 34.0727C419.163 34.4332 419.145 35.0482 418.764 35.4258L415.593 38.5692C415.202 38.9568 414.574 38.9509 414.155 38.5942C413.539 38.0702 412.916 37.6555 412.286 37.3501C411.406 36.9234 410.446 36.7101 409.406 36.7101C408.419 36.7101 407.646 36.8834 407.086 37.2301C406.526 37.5767 406.246 38.0701 406.246 38.7101C406.246 39.3501 406.486 39.8701 406.966 40.2701C407.446 40.6701 408.072 41.0301 408.846 41.3501C409.646 41.6434 410.512 41.9501 411.446 42.2701C412.406 42.5901 413.352 42.9634 414.286 43.3901C415.219 43.8167 416.072 44.3634 416.846 45.0301C417.646 45.6967 418.286 46.5367 418.766 47.5501C419.246 48.5634 419.486 49.7901 419.486 51.2301C419.486 54.0567 418.486 56.2434 416.486 57.7901C414.512 59.3367 411.739 60.1101 408.166 60.1101Z" fill="#171023"/>
<path d="M434.714 60.1101C433.54 60.1101 432.581 59.7234 431.834 58.9501C431.087 58.1767 430.714 57.2167 430.714 56.0701C430.714 54.9234 431.087 53.9634 431.834 53.1901C432.581 52.4167 433.54 52.0301 434.714 52.0301C435.861 52.0301 436.807 52.4167 437.554 53.1901C438.301 53.9634 438.674 54.9234 438.674 56.0701C438.674 57.2167 438.301 58.1767 437.554 58.9501C436.807 59.7234 435.861 60.1101 434.714 60.1101Z" fill="#171023"/>
<path d="M457.102 59.6701C456.55 59.6701 456.102 59.2224 456.102 58.6701V54.5101C456.102 53.9578 456.55 53.5101 457.102 53.5101H462.902C464.502 53.5101 465.889 53.2034 467.062 52.5901C468.262 51.9767 469.182 51.0701 469.822 49.8701C470.462 48.6434 470.782 47.1634 470.782 45.4301C470.782 43.7234 470.449 42.2834 469.782 41.1101C469.142 39.9101 468.236 39.0034 467.062 38.3901C465.889 37.7767 464.502 37.4701 462.902 37.4701H456.782C456.23 37.4701 455.782 37.0224 455.782 36.4701V32.3101C455.782 31.7578 456.23 31.3101 456.782 31.3101H462.942C465.129 31.3101 467.142 31.6567 468.982 32.3501C470.822 33.0167 472.422 33.9767 473.782 35.2301C475.142 36.4834 476.196 37.9767 476.942 39.7101C477.716 41.4434 478.102 43.3634 478.102 45.4701C478.102 47.6034 477.716 49.5367 476.942 51.2701C476.196 53.0034 475.142 54.4967 473.782 55.7501C472.422 57.0034 470.822 57.9767 468.982 58.6701C467.169 59.3367 465.182 59.6701 463.022 59.6701H457.102ZM452.262 59.6701C451.71 59.6701 451.262 59.2224 451.262 58.6701V32.3101C451.262 31.7578 451.71 31.3101 452.262 31.3101H457.422C457.975 31.3101 458.422 31.7578 458.422 32.3101V58.6701C458.422 59.2224 457.975 59.6701 457.422 59.6701H452.262Z" fill="#171023"/>
<path d="M490.692 59.6701C490.14 59.6701 489.692 59.2224 489.692 58.6701V32.3101C489.692 31.7578 490.14 31.3101 490.692 31.3101H495.852C496.404 31.3101 496.852 31.7578 496.852 32.3101V58.6701C496.852 59.2224 496.404 59.6701 495.852 59.6701H490.692ZM496.372 59.6701C495.82 59.6701 495.372 59.2224 495.372 58.6701V54.6301C495.372 54.0778 495.82 53.6301 496.372 53.6301H509.732C510.284 53.6301 510.732 54.0778 510.732 54.6301V58.6701C510.732 59.2224 510.284 59.6701 509.732 59.6701H496.372ZM496.372 48.1501C495.82 48.1501 495.372 47.7024 495.372 47.1501V43.2701C495.372 42.7178 495.82 42.2701 496.372 42.2701H508.292C508.844 42.2701 509.292 42.7178 509.292 43.2701V47.1501C509.292 47.7024 508.844 48.1501 508.292 48.1501H496.372ZM496.372 37.3501C495.82 37.3501 495.372 36.9024 495.372 36.3501V32.3101C495.372 31.7578 495.82 31.3101 496.372 31.3101H509.492C510.044 31.3101 510.492 31.7578 510.492 32.3101V36.3501C510.492 36.9024 510.044 37.3501 509.492 37.3501H496.372Z" fill="#171023"/>
<path d="M531.515 59.6701C531.099 59.6701 530.726 59.4121 530.579 59.0225L520.653 32.6625C520.406 32.0085 520.89 31.3101 521.588 31.3101H527.073C527.498 31.3101 527.877 31.579 528.017 31.9805L535.319 52.9005C535.546 53.5506 535.063 54.2301 534.375 54.2301H533.918C533.228 54.2301 532.745 53.547 532.976 52.8961L540.387 31.9761C540.529 31.5769 540.906 31.3101 541.33 31.3101H546.652C547.353 31.3101 547.836 32.0114 547.587 32.666L537.549 59.026C537.401 59.4138 537.029 59.6701 536.614 59.6701H531.515Z" fill="#171023"/>
<path d="M212.961 91.488V78.8521H214.643V91.488H212.961ZM214.106 85.9348V84.3689H220.585V85.9348H214.106ZM214.106 80.4179V78.8521H220.889V80.4179H214.106Z" fill="#4E4563"/>
<path d="M231.384 85.9894V84.551H234.748C235.476 84.551 236.037 84.3629 236.43 83.9866C236.824 83.6103 237.021 83.1005 237.021 82.4572C237.021 81.8503 236.824 81.3465 236.43 80.946C236.049 80.5454 235.494 80.3451 234.766 80.3451H231.384V78.8521H234.82C235.607 78.8521 236.293 79.0099 236.878 79.3255C237.462 79.629 237.91 80.0477 238.22 80.5818C238.542 81.1159 238.703 81.7289 238.703 82.4207C238.703 83.1369 238.542 83.762 238.22 84.2961C237.91 84.8302 237.462 85.2489 236.878 85.5524C236.293 85.8437 235.607 85.9894 234.82 85.9894H231.384ZM230.256 91.488V78.8521H231.938V91.488H230.256ZM237.415 91.488L232.905 85.8255L234.498 85.2611L239.544 91.488H237.415Z" fill="#4E4563"/>
<path d="M253.905 91.67C253.023 91.67 252.199 91.5062 251.436 91.1784C250.672 90.8386 250.004 90.3713 249.431 89.7765C248.859 89.1696 248.411 88.4716 248.089 87.6826C247.779 86.8937 247.624 86.0501 247.624 85.1518C247.624 84.2415 247.779 83.3979 248.089 82.621C248.411 81.832 248.853 81.1402 249.413 80.5454C249.986 79.9506 250.648 79.4894 251.4 79.1616C252.164 78.8339 252.987 78.67 253.87 78.67C254.753 78.67 255.57 78.8339 256.321 79.1616C257.085 79.4894 257.753 79.9506 258.326 80.5454C258.899 81.1402 259.346 81.832 259.668 82.621C259.99 83.41 260.151 84.2597 260.151 85.17C260.151 86.0683 259.99 86.9119 259.668 87.7009C259.346 88.4898 258.899 89.1817 258.326 89.7765C257.765 90.3713 257.103 90.8386 256.339 91.1784C255.588 91.5062 254.776 91.67 253.905 91.67ZM253.87 90.0314C254.764 90.0314 255.546 89.825 256.214 89.4123C256.894 88.9875 257.431 88.4109 257.825 87.6826C258.218 86.9422 258.415 86.0986 258.415 85.1518C258.415 84.4478 258.302 83.8045 258.075 83.2219C257.849 82.6271 257.532 82.1112 257.127 81.6742C256.721 81.2373 256.244 80.9035 255.695 80.6728C255.146 80.4301 254.538 80.3087 253.87 80.3087C252.987 80.3087 252.205 80.515 251.525 80.9277C250.857 81.3404 250.326 81.9109 249.932 82.6392C249.551 83.3675 249.36 84.2051 249.36 85.1518C249.36 85.8559 249.467 86.5113 249.682 87.1182C249.909 87.713 250.219 88.2289 250.613 88.6658C251.018 89.0907 251.495 89.4245 252.044 89.6672C252.605 89.91 253.213 90.0314 253.87 90.0314Z" fill="#4E4563"/>
<path d="M269.617 91.488V78.8521H270.799L271.3 80.8367V91.488H269.617ZM278.208 91.488L270.584 81.128L270.799 78.8521L278.44 89.1939L278.208 91.488ZM278.208 91.488L277.706 89.6126V78.8521H279.389V91.488H278.208Z" fill="#4E4563"/>
<path d="M292.774 91.488V79.2163H294.457V91.488H292.774ZM288.551 80.4179V78.8521H298.662V80.4179H288.551Z" fill="#4E4563"/>
<path d="M306.141 87.628V86.0804H312.029V87.628H306.141Z" fill="#4E4563"/>
<path d="M321.835 91.488V78.8521H323.517V91.488H321.835ZM322.98 91.488V89.9221H330.103V91.488H322.98ZM322.98 85.7709V84.2779H329.512V85.7709H322.98ZM322.98 80.4179V78.8521H330.013V80.4179H322.98Z" fill="#4E4563"/>
<path d="M339.549 91.488V78.8521H340.73L341.231 80.8367V91.488H339.549ZM348.139 91.488L340.515 81.128L340.73 78.8521L348.372 89.1939L348.139 91.488ZM348.139 91.488L347.638 89.6126V78.8521H349.32V91.488H348.139Z" fill="#4E4563"/>
<path d="M360.523 91.488V89.9221H363.977C364.895 89.9221 365.701 89.7219 366.393 89.3213C367.085 88.9086 367.622 88.3442 368.003 87.628C368.397 86.9119 368.594 86.0865 368.594 85.1518C368.594 84.2293 368.397 83.41 368.003 82.6939C367.61 81.9777 367.067 81.4193 366.375 81.0188C365.683 80.6182 364.884 80.4179 363.977 80.4179H360.541V78.8521H364.013C364.919 78.8521 365.754 79.0099 366.518 79.3255C367.294 79.6411 367.962 80.0841 368.522 80.6546C369.095 81.2251 369.537 81.8927 369.847 82.6574C370.169 83.4221 370.33 84.2597 370.33 85.17C370.33 86.0683 370.169 86.9058 369.847 87.6826C369.537 88.4474 369.101 89.115 368.54 89.6855C367.98 90.2559 367.311 90.699 366.536 91.0146C365.772 91.3302 364.943 91.488 364.048 91.488H360.523ZM359.413 91.488V78.8521H361.095V91.488H359.413Z" fill="#4E4563"/>
<path d="M391.81 91.488V89.9221H395.264C396.182 89.9221 396.988 89.7219 397.68 89.3213C398.372 88.9086 398.909 88.3442 399.29 87.628C399.684 86.9119 399.881 86.0865 399.881 85.1518C399.881 84.2293 399.684 83.41 399.29 82.6939C398.897 81.9777 398.354 81.4193 397.662 81.0188C396.97 80.6182 396.171 80.4179 395.264 80.4179H391.828V78.8521H395.3C396.206 78.8521 397.041 79.0099 397.805 79.3255C398.581 79.6411 399.249 80.0841 399.809 80.6546C400.382 81.2251 400.824 81.8927 401.134 82.6574C401.456 83.4221 401.617 84.2597 401.617 85.17C401.617 86.0683 401.456 86.9058 401.134 87.6826C400.824 88.4474 400.388 89.115 399.827 89.6855C399.267 90.2559 398.598 90.699 397.823 91.0146C397.059 91.3302 396.23 91.488 395.335 91.488H391.81ZM390.7 91.488V78.8521H392.382V91.488H390.7Z" fill="#4E4563"/>
<path d="M411.106 91.488V78.8521H412.788V91.488H411.106ZM412.251 91.488V89.9221H419.374V91.488H412.251ZM412.251 85.7709V84.2779H418.784V85.7709H412.251ZM412.251 80.4179V78.8521H419.285V80.4179H412.251Z" fill="#4E4563"/>
<path d="M432.638 91.488L427.663 78.8521H429.489L433.587 89.5398H432.925L437.059 78.8521H438.866L433.855 91.488H432.638Z" fill="#4E4563"/>
<path d="M448.056 91.488V78.8521H449.738V91.488H448.056ZM449.201 91.488V89.9221H456.324V91.488H449.201ZM449.201 85.7709V84.2779H455.733V85.7709H449.201ZM449.201 80.4179V78.8521H456.234V80.4179H449.201Z" fill="#4E4563"/>
<path d="M465.77 91.488V78.8521H467.452V91.488H465.77ZM466.915 91.488V89.9221H473.573V91.488H466.915Z" fill="#4E4563"/>
<path d="M487.375 91.67C486.492 91.67 485.669 91.5062 484.905 91.1784C484.141 90.8386 483.473 90.3713 482.901 89.7765C482.328 89.1696 481.881 88.4716 481.558 87.6826C481.248 86.8937 481.093 86.0501 481.093 85.1518C481.093 84.2415 481.248 83.3979 481.558 82.621C481.881 81.832 482.322 81.1402 482.883 80.5454C483.455 79.9506 484.118 79.4894 484.869 79.1616C485.633 78.8339 486.456 78.67 487.339 78.67C488.222 78.67 489.039 78.8339 489.791 79.1616C490.554 79.4894 491.222 79.9506 491.795 80.5454C492.368 81.1402 492.815 81.832 493.137 82.621C493.459 83.41 493.62 84.2597 493.62 85.17C493.62 86.0683 493.459 86.9119 493.137 87.7009C492.815 88.4898 492.368 89.1817 491.795 89.7765C491.234 90.3713 490.572 90.8386 489.809 91.1784C489.057 91.5062 488.246 91.67 487.375 91.67ZM487.339 90.0314C488.234 90.0314 489.015 89.825 489.683 89.4123C490.363 88.9875 490.9 88.4109 491.294 87.6826C491.688 86.9422 491.885 86.0986 491.885 85.1518C491.885 84.4478 491.771 83.8045 491.544 83.2219C491.318 82.6271 491.002 82.1112 490.596 81.6742C490.19 81.2373 489.713 80.9035 489.164 80.6728C488.615 80.4301 488.007 80.3087 487.339 80.3087C486.456 80.3087 485.675 80.515 484.994 80.9277C484.326 81.3404 483.795 81.9109 483.402 82.6392C483.02 83.3675 482.829 84.2051 482.829 85.1518C482.829 85.8559 482.936 86.5113 483.151 87.1182C483.378 87.713 483.688 88.2289 484.082 88.6658C484.487 89.0907 484.965 89.4245 485.513 89.6672C486.074 89.91 486.683 90.0314 487.339 90.0314Z" fill="#4E4563"/>
<path d="M504.214 86.572V85.079H507.596C508.062 85.079 508.473 84.9819 508.831 84.7877C509.201 84.5935 509.488 84.3204 509.69 83.9684C509.905 83.6164 510.012 83.1976 510.012 82.7121C510.012 82.2265 509.905 81.8078 509.69 81.4558C509.488 81.1038 509.201 80.8306 508.831 80.6364C508.473 80.4422 508.062 80.3451 507.596 80.3451H504.214V78.8521H507.704C508.467 78.8521 509.147 79.0099 509.744 79.3255C510.353 79.6411 510.83 80.0902 511.176 80.6728C511.534 81.2433 511.713 81.9231 511.713 82.7121C511.713 83.4889 511.534 84.1686 511.176 84.7513C510.83 85.3218 510.353 85.7709 509.744 86.0986C509.147 86.4142 508.467 86.572 507.704 86.572H504.214ZM503.087 91.488V78.8521H504.769V91.488H503.087Z" fill="#4E4563"/>
<path d="M520.958 91.488V78.8521H522.641V91.488H520.958ZM522.104 91.488V89.9221H529.226V91.488H522.104ZM522.104 85.7709V84.2779H528.636V85.7709H522.104ZM522.104 80.4179V78.8521H529.137V80.4179H522.104Z" fill="#4E4563"/>
<path d="M539.8 85.9894V84.551H543.165C543.893 84.551 544.453 84.3629 544.847 83.9866C545.241 83.6103 545.438 83.1005 545.438 82.4572C545.438 81.8503 545.241 81.3465 544.847 80.946C544.465 80.5454 543.911 80.3451 543.183 80.3451H539.8V78.8521H543.236C544.024 78.8521 544.71 79.0099 545.295 79.3255C545.879 79.629 546.327 80.0477 546.637 80.5818C546.959 81.1159 547.12 81.7289 547.12 82.4207C547.12 83.1369 546.959 83.762 546.637 84.2961C546.327 84.8302 545.879 85.2489 545.295 85.5524C544.71 85.8437 544.024 85.9894 543.236 85.9894H539.8ZM538.673 91.488V78.8521H540.355V91.488H538.673ZM545.831 91.488L541.322 85.8255L542.914 85.2611L547.961 91.488H545.831Z" fill="#4E4563"/>
<defs>
<linearGradient id="paint0_linear_1106_650" x1="0.68103" y1="61.2501" x2="180.681" y2="61.2503" gradientUnits="userSpaceOnUse">
<stop stop-color="#9955E8"/>
<stop offset="1" stop-color="#7BFFAF"/>
</linearGradient>
<linearGradient id="paint1_linear_1106_650" x1="0.68103" y1="61.2501" x2="180.681" y2="61.2503" gradientUnits="userSpaceOnUse">
<stop stop-color="#9955E8"/>
<stop offset="1" stop-color="#7BFFAF"/>
</linearGradient>
</defs>
</svg>
