<svg width="181" height="123" viewBox="0 0 181 123" fill="none" xmlns="http://www.w3.org/2000/svg">
<path d="M42.7509 0C41.6609 0 40.7716 0.872759 40.7512 1.96253L40.2532 28.5385L5.1732 42.8585C3.52047 43.5332 3.5125 45.8707 5.16059 46.5567L40.788 61.3846V89C40.788 90.1046 41.6834 91 42.788 91H64.5447C65.3739 91 66.1171 90.4883 66.413 89.7137L99.6445 2.71365C100.145 1.40432 99.1777 0 97.7762 0H42.7509Z" fill="url(#paint0_linear_1106_651)"/>
<path fill-rule="evenodd" clip-rule="evenodd" d="M47.1657 33.2775L19.0492 44.755L47.788 56.7159V84H61.1022L90.514 7H47.658L47.1657 33.2775ZM42.7509 0C41.6609 0 40.7716 0.872759 40.7512 1.96253L40.2532 28.5385L5.1732 42.8585C3.52047 43.5332 3.5125 45.8707 5.16059 46.5567L40.788 61.3846V89C40.788 90.1046 41.6834 91 42.788 91H64.5447C65.3739 91 66.1171 90.4883 66.413 89.7137L99.6445 2.71365C100.145 1.40432 99.1777 0 97.7762 0H42.7509Z" fill="#171023"/>
<path d="M138.611 91C139.701 91 140.59 90.1272 140.611 89.0375L141.109 62.4615L176.189 48.1415C177.842 47.4668 177.85 45.1293 176.201 44.4433L140.574 29.6154V2C140.574 0.895431 139.679 0 138.574 0H116.817C115.988 0 115.245 0.511703 114.949 1.28634L81.7176 88.2863C81.2174 89.5957 82.1843 91 83.5859 91H138.611Z" fill="url(#paint1_linear_1106_651)"/>
<path fill-rule="evenodd" clip-rule="evenodd" d="M134.196 57.7225L162.313 46.245L133.574 34.2841V7H120.26L90.8481 84H133.704L134.196 57.7225ZM138.611 91C139.701 91 140.59 90.1272 140.611 89.0375L141.109 62.4615L176.189 48.1415C177.842 47.4668 177.85 45.1293 176.201 44.4433L140.574 29.6154V2C140.574 0.895431 139.679 0 138.574 0H116.817C115.988 0 115.245 0.511703 114.949 1.28634L81.7176 88.2863C81.2174 89.5957 82.1843 91 83.5859 91H138.611Z" fill="#171023"/>
<path fill-rule="evenodd" clip-rule="evenodd" d="M42.861 98.7931C42.861 97.6665 43.7218 96.5 45.081 96.5H47.181C48.0095 96.5 48.681 97.1716 48.681 98V98.09C48.681 98.8687 48.0498 99.5 47.271 99.5C46.4923 99.5 45.861 100.131 45.861 100.91V106.724C45.861 107.39 45.5782 108.061 45.0284 108.515L43.8362 109.5L45.0284 110.485C45.5782 110.939 45.861 111.61 45.861 112.276V118.09C45.861 118.869 46.4923 119.5 47.271 119.5C48.0498 119.5 48.681 120.131 48.681 120.91V121C48.681 121.828 48.0095 122.5 47.181 122.5H45.081C43.7218 122.5 42.861 121.334 42.861 120.207V113.528C42.861 112.931 42.5947 112.366 42.1349 111.986L41.1986 111.212C41.0325 111.075 40.8237 111 40.6081 111C40.0961 111 39.681 110.585 39.681 110.073V108.927C39.681 108.415 40.0961 108 40.6081 108C40.8237 108 41.0325 107.925 41.1986 107.788L42.1349 107.014C42.5947 106.634 42.861 106.069 42.861 105.472V98.7931Z" fill="#171023"/>
<path fill-rule="evenodd" clip-rule="evenodd" d="M138.501 98.7931C138.501 97.6665 137.64 96.5 136.281 96.5H134.181C133.353 96.5 132.681 97.1716 132.681 98V98.09C132.681 98.8687 133.312 99.5 134.091 99.5C134.87 99.5 135.501 100.131 135.501 100.91V106.724C135.501 107.39 135.784 108.061 136.334 108.515L137.526 109.5L136.334 110.485C135.784 110.939 135.501 111.61 135.501 112.276V118.09C135.501 118.869 134.87 119.5 134.091 119.5C133.312 119.5 132.681 120.131 132.681 120.91V121C132.681 121.828 133.353 122.5 134.181 122.5H136.281C137.64 122.5 138.501 121.334 138.501 120.207V113.528C138.501 112.931 138.767 112.366 139.227 111.986L140.163 111.212C140.33 111.075 140.538 111 140.754 111C141.266 111 141.681 110.585 141.681 110.073V108.927C141.681 108.415 141.266 108 140.754 108C140.538 108 140.33 107.925 140.163 107.788L139.227 107.014C138.767 106.634 138.501 106.069 138.501 105.472V98.7931Z" fill="#171023"/>
<path d="M50.8017 100.371C50.8017 99.8184 51.2494 99.3707 51.8017 99.3707H53.5086C54.0609 99.3707 54.5086 99.8184 54.5086 100.371V102.078C54.5086 102.63 54.0609 103.078 53.5086 103.078H51.8017C51.2494 103.078 50.8017 102.63 50.8017 102.078V100.371Z" fill="#171023"/>
<path d="M50.8017 105.56C50.8017 105.008 51.2494 104.56 51.8017 104.56H53.5086C54.0609 104.56 54.5086 105.008 54.5086 105.56V107.267C54.5086 107.82 54.0609 108.267 53.5086 108.267H51.8017C51.2494 108.267 50.8017 107.82 50.8017 107.267V105.56Z" fill="#171023"/>
<path d="M50.8017 116.681C50.8017 116.129 51.2494 115.681 51.8017 115.681H53.5086C54.0609 115.681 54.5086 116.129 54.5086 116.681V118.388C54.5086 118.94 54.0609 119.388 53.5086 119.388H51.8017C51.2494 119.388 50.8017 118.94 50.8017 118.388V116.681Z" fill="#171023"/>
<path d="M50.8017 110.75C50.8017 110.198 51.2494 109.75 51.8017 109.75H59.4396C59.9919 109.75 60.4396 110.198 60.4396 110.75V112.457C60.4396 113.009 59.9919 113.457 59.4396 113.457H51.8017C51.2494 113.457 50.8017 113.009 50.8017 112.457V110.75Z" fill="#171023"/>
<path d="M61.9224 116.681C61.9224 116.129 62.3701 115.681 62.9224 115.681H80.9396C81.4919 115.681 81.9396 116.129 81.9396 116.681V118.388C81.9396 118.94 81.4919 119.388 80.9396 119.388H62.9224C62.3701 119.388 61.9224 118.94 61.9224 118.388V116.681Z" fill="#171023"/>
<path d="M56.7328 100.371C56.7328 99.8184 57.1805 99.3707 57.7328 99.3707H59.4397C59.9919 99.3707 60.4397 99.8184 60.4397 100.371V102.078C60.4397 102.63 59.9919 103.078 59.4397 103.078H57.7328C57.1805 103.078 56.7328 102.63 56.7328 102.078V100.371Z" fill="#171023"/>
<path d="M56.7328 105.56C56.7328 105.008 57.1805 104.56 57.7328 104.56H59.4397C59.9919 104.56 60.4397 105.008 60.4397 105.56V107.267C60.4397 107.82 59.9919 108.267 59.4397 108.267H57.7328C57.1805 108.267 56.7328 107.82 56.7328 107.267V105.56Z" fill="#171023"/>
<path d="M56.7328 116.681C56.7328 116.129 57.1805 115.681 57.7328 115.681H59.4397C59.9919 115.681 60.4397 116.129 60.4397 116.681V118.388C60.4397 118.94 59.9919 119.388 59.4397 119.388H57.7328C57.1805 119.388 56.7328 118.94 56.7328 118.388V116.681Z" fill="#171023"/>
<path d="M61.9224 100.371C61.9224 99.8184 62.3701 99.3707 62.9224 99.3707H64.6293C65.1816 99.3707 65.6293 99.8184 65.6293 100.371V102.078C65.6293 102.63 65.1816 103.078 64.6293 103.078H62.9224C62.3701 103.078 61.9224 102.63 61.9224 102.078V100.371Z" fill="#171023"/>
<path d="M61.9224 105.56C61.9224 105.008 62.3701 104.56 62.9224 104.56H64.6293C65.1816 104.56 65.6293 105.008 65.6293 105.56V107.267C65.6293 107.82 65.1816 108.267 64.6293 108.267H62.9224C62.3701 108.267 61.9224 107.82 61.9224 107.267V105.56Z" fill="#171023"/>
<path d="M61.9224 110.75C61.9224 110.198 62.3701 109.75 62.9224 109.75H64.6293C65.1816 109.75 65.6293 110.198 65.6293 110.75V112.457C65.6293 113.009 65.1816 113.457 64.6293 113.457H62.9224C62.3701 113.457 61.9224 113.009 61.9224 112.457V110.75Z" fill="#171023"/>
<path d="M67.8534 100.371C67.8534 99.8184 68.3011 99.3707 68.8534 99.3707H70.5603C71.1126 99.3707 71.5603 99.8184 71.5603 100.371V102.078C71.5603 102.63 71.1126 103.078 70.5603 103.078H68.8534C68.3011 103.078 67.8534 102.63 67.8534 102.078V100.371Z" fill="#171023"/>
<path d="M96.7672 100.371C96.7672 99.8184 97.2149 99.3707 97.7672 99.3707H99.4741C100.026 99.3707 100.474 99.8184 100.474 100.371V102.078C100.474 102.63 100.026 103.078 99.4741 103.078H97.7672C97.2149 103.078 96.7672 102.63 96.7672 102.078V100.371Z" fill="#171023"/>
<path d="M96.7672 105.56C96.7672 105.008 97.2149 104.56 97.7672 104.56H99.4741C100.026 104.56 100.474 105.008 100.474 105.56V107.267C100.474 107.82 100.026 108.267 99.4741 108.267H97.7672C97.2149 108.267 96.7672 107.82 96.7672 107.267V105.56Z" fill="#171023"/>
<path d="M96.7672 116.681C96.7672 116.129 97.2149 115.681 97.7672 115.681H99.4741C100.026 115.681 100.474 116.129 100.474 116.681V118.388C100.474 118.94 100.026 119.388 99.4741 119.388H97.7672C97.2149 119.388 96.7672 118.94 96.7672 118.388V116.681Z" fill="#171023"/>
<path d="M116.043 100.371C116.043 99.8184 116.491 99.3707 117.043 99.3707H118.75C119.302 99.3707 119.75 99.8184 119.75 100.371V102.078C119.75 102.63 119.302 103.078 118.75 103.078H117.043C116.491 103.078 116.043 102.63 116.043 102.078V100.371Z" fill="#171023"/>
<path d="M116.043 105.56C116.043 105.008 116.491 104.56 117.043 104.56H118.75C119.302 104.56 119.75 105.008 119.75 105.56V107.267C119.75 107.82 119.302 108.267 118.75 108.267H117.043C116.491 108.267 116.043 107.82 116.043 107.267V105.56Z" fill="#171023"/>
<path d="M116.043 110.75C116.043 110.198 116.491 109.75 117.043 109.75H118.75C119.302 109.75 119.75 110.198 119.75 110.75V112.457C119.75 113.009 119.302 113.457 118.75 113.457H117.043C116.491 113.457 116.043 113.009 116.043 112.457V110.75Z" fill="#171023"/>
<path d="M116.043 116.681C116.043 116.129 116.491 115.681 117.043 115.681H118.75C119.302 115.681 119.75 116.129 119.75 116.681V118.388C119.75 118.94 119.302 119.388 118.75 119.388H117.043C116.491 119.388 116.043 118.94 116.043 118.388V116.681Z" fill="#171023"/>
<path d="M67.8534 105.56C67.8534 105.008 68.3011 104.56 68.8534 104.56H70.5603C71.1126 104.56 71.5603 105.008 71.5603 105.56V107.267C71.5603 107.82 71.1126 108.267 70.5603 108.267H68.8534C68.3011 108.267 67.8534 107.82 67.8534 107.267V105.56Z" fill="#171023"/>
<path d="M67.8534 110.75C67.8534 110.198 68.3011 109.75 68.8534 109.75H70.5603C71.1126 109.75 71.5603 110.198 71.5603 110.75V112.457C71.5603 113.009 71.1126 113.457 70.5603 113.457H68.8534C68.3011 113.457 67.8534 113.009 67.8534 112.457V110.75Z" fill="#171023"/>
<path d="M73.0431 100.371C73.0431 99.8184 73.4908 99.3707 74.0431 99.3707H75.75C76.3022 99.3707 76.75 99.8184 76.75 100.371V102.078C76.75 102.63 76.3022 103.078 75.75 103.078H74.0431C73.4908 103.078 73.0431 102.63 73.0431 102.078V100.371Z" fill="#171023"/>
<path d="M101.957 100.371C101.957 99.8184 102.405 99.3707 102.957 99.3707H104.664C105.216 99.3707 105.664 99.8184 105.664 100.371V102.078C105.664 102.63 105.216 103.078 104.664 103.078H102.957C102.405 103.078 101.957 102.63 101.957 102.078V100.371Z" fill="#171023"/>
<path d="M101.957 105.56C101.957 105.008 102.405 104.56 102.957 104.56H104.664C105.216 104.56 105.664 105.008 105.664 105.56V107.267C105.664 107.82 105.216 108.267 104.664 108.267H102.957C102.405 108.267 101.957 107.82 101.957 107.267V105.56Z" fill="#171023"/>
<path d="M101.957 111.491C101.957 110.939 102.405 110.491 102.957 110.491H104.664C105.216 110.491 105.664 110.939 105.664 111.491V113.198C105.664 113.751 105.216 114.198 104.664 114.198H102.957C102.405 114.198 101.957 113.751 101.957 113.198V111.491Z" fill="#171023"/>
<path d="M101.957 116.681C101.957 116.129 102.405 115.681 102.957 115.681H104.664C105.216 115.681 105.664 116.129 105.664 116.681V118.388C105.664 118.94 105.216 119.388 104.664 119.388H102.957C102.405 119.388 101.957 118.94 101.957 118.388V116.681Z" fill="#171023"/>
<path d="M121.233 100.371C121.233 99.8184 121.68 99.3707 122.233 99.3707H123.94C124.492 99.3707 124.94 99.8184 124.94 100.371V102.078C124.94 102.63 124.492 103.078 123.94 103.078H122.233C121.68 103.078 121.233 102.63 121.233 102.078V100.371Z" fill="#171023"/>
<path d="M121.233 105.56C121.233 105.008 121.68 104.56 122.233 104.56H123.94C124.492 104.56 124.94 105.008 124.94 105.56V107.267C124.94 107.82 124.492 108.267 123.94 108.267H122.233C121.68 108.267 121.233 107.82 121.233 107.267V105.56Z" fill="#171023"/>
<path d="M121.233 110.75C121.233 110.198 121.68 109.75 122.233 109.75H123.94C124.492 109.75 124.94 110.198 124.94 110.75V112.457C124.94 113.009 124.492 113.457 123.94 113.457H122.233C121.68 113.457 121.233 113.009 121.233 112.457V110.75Z" fill="#171023"/>
<path d="M126.422 110.75C126.422 110.198 126.87 109.75 127.422 109.75H129.129C129.682 109.75 130.129 110.198 130.129 110.75V118.388C130.129 118.94 129.682 119.388 129.129 119.388H127.422C126.87 119.388 126.422 118.94 126.422 118.388V110.75Z" fill="#171023"/>
<path d="M121.233 116.681C121.233 116.129 121.68 115.681 122.233 115.681H123.94C124.492 115.681 124.94 116.129 124.94 116.681V118.388C124.94 118.94 124.492 119.388 123.94 119.388H122.233C121.68 119.388 121.233 118.94 121.233 118.388V116.681Z" fill="#171023"/>
<path d="M84.1638 100.371C84.1638 99.8184 84.6115 99.3707 85.1638 99.3707H86.8707C87.423 99.3707 87.8707 99.8184 87.8707 100.371V102.078C87.8707 102.63 87.423 103.078 86.8707 103.078H85.1638C84.6115 103.078 84.1638 102.63 84.1638 102.078V100.371Z" fill="#171023"/>
<path d="M73.0431 105.56C73.0431 105.008 73.4908 104.56 74.0431 104.56H75.75C76.3022 104.56 76.75 105.008 76.75 105.56V107.267C76.75 107.82 76.3022 108.267 75.75 108.267H74.0431C73.4908 108.267 73.0431 107.82 73.0431 107.267V105.56Z" fill="#171023"/>
<path d="M73.0431 110.75C73.0431 110.198 73.4908 109.75 74.0431 109.75H75.75C76.3022 109.75 76.75 110.198 76.75 110.75V112.457C76.75 113.009 76.3022 113.457 75.75 113.457H74.0431C73.4908 113.457 73.0431 113.009 73.0431 112.457V110.75Z" fill="#171023"/>
<path d="M78.2327 100.371C78.2327 99.8184 78.6805 99.3707 79.2327 99.3707H80.9396C81.4919 99.3707 81.9396 99.8184 81.9396 100.371V102.078C81.9396 102.63 81.4919 103.078 80.9396 103.078H79.2327C78.6805 103.078 78.2327 102.63 78.2327 102.078V100.371Z" fill="#171023"/>
<path d="M107.147 100.371C107.147 99.8184 107.594 99.3707 108.147 99.3707H109.853C110.406 99.3707 110.853 99.8184 110.853 100.371V102.078C110.853 102.63 110.406 103.078 109.853 103.078H108.147C107.594 103.078 107.147 102.63 107.147 102.078V100.371Z" fill="#171023"/>
<path d="M107.147 105.56C107.147 105.008 107.594 104.56 108.147 104.56H109.853C110.406 104.56 110.853 105.008 110.853 105.56V107.267C110.853 107.82 110.406 108.267 109.853 108.267H108.147C107.594 108.267 107.147 107.82 107.147 107.267V105.56Z" fill="#171023"/>
<path d="M107.147 116.681C107.147 116.129 107.594 115.681 108.147 115.681H109.853C110.406 115.681 110.853 116.129 110.853 116.681V118.388C110.853 118.94 110.406 119.388 109.853 119.388H108.147C107.594 119.388 107.147 118.94 107.147 118.388V116.681Z" fill="#171023"/>
<path d="M126.422 100.371C126.422 99.8184 126.87 99.3707 127.422 99.3707H129.129C129.682 99.3707 130.129 99.8184 130.129 100.371V102.078C130.129 102.63 129.682 103.078 129.129 103.078H127.422C126.87 103.078 126.422 102.63 126.422 102.078V100.371Z" fill="#171023"/>
<path d="M126.422 105.56C126.422 105.008 126.87 104.56 127.422 104.56H129.129C129.682 104.56 130.129 105.008 130.129 105.56V107.267C130.129 107.82 129.682 108.267 129.129 108.267H127.422C126.87 108.267 126.422 107.82 126.422 107.267V105.56Z" fill="#171023"/>
<path d="M89.3534 100.371C89.3534 99.8184 89.8011 99.3707 90.3534 99.3707H92.0603C92.6126 99.3707 93.0603 99.8184 93.0603 100.371V102.078C93.0603 102.63 92.6126 103.078 92.0603 103.078H90.3534C89.8011 103.078 89.3534 102.63 89.3534 102.078V100.371Z" fill="#171023"/>
<path d="M78.2327 105.56C78.2327 105.008 78.6805 104.56 79.2327 104.56H80.9396C81.4919 104.56 81.9396 105.008 81.9396 105.56V107.267C81.9396 107.82 81.4919 108.267 80.9396 108.267H79.2327C78.6805 108.267 78.2327 107.82 78.2327 107.267V105.56Z" fill="#171023"/>
<path d="M84.1638 110.75C84.1638 110.198 84.6115 109.75 85.1638 109.75H86.8707C87.423 109.75 87.8707 110.198 87.8707 110.75V112.457C87.8707 113.009 87.423 113.457 86.8707 113.457H85.1638C84.6115 113.457 84.1638 113.009 84.1638 112.457V110.75Z" fill="#171023"/>
<path d="M89.3534 108.267H93.0603V112.457C93.0603 113.009 92.6126 113.457 92.0603 113.457H90.3534C89.8012 113.457 89.3534 113.009 89.3534 112.457V108.267Z" fill="#171023"/>
<path d="M84.1638 105.56C84.1638 105.008 84.6115 104.56 85.1638 104.56H92.0603C92.6126 104.56 93.0603 105.008 93.0603 105.56V108.267L85.1638 108.267C84.6115 108.267 84.1638 107.82 84.1638 107.267V105.56Z" fill="#171023"/>
<path d="M78.2327 110.75C78.2327 110.198 78.6805 109.75 79.2327 109.75H80.9396C81.4919 109.75 81.9396 110.198 81.9396 110.75V112.457C81.9396 113.009 81.4919 113.457 80.9396 113.457H79.2327C78.6805 113.457 78.2327 113.009 78.2327 112.457V110.75Z" fill="#171023"/>
<path d="M84.1638 116.681C84.1638 116.129 84.6115 115.681 85.1638 115.681H86.8707C87.423 115.681 87.8707 116.129 87.8707 116.681V118.388C87.8707 118.94 87.423 119.388 86.8707 119.388H85.1638C84.6115 119.388 84.1638 118.94 84.1638 118.388V116.681Z" fill="#171023"/>
<path d="M89.3534 116.681C89.3534 116.129 89.8011 115.681 90.3534 115.681H92.0603C92.6126 115.681 93.0603 116.129 93.0603 116.681V118.388C93.0603 118.94 92.6126 119.388 92.0603 119.388H90.3534C89.8011 119.388 89.3534 118.94 89.3534 118.388V116.681Z" fill="#171023"/>
<defs>
<linearGradient id="paint0_linear_1106_651" x1="0.68103" y1="61.2501" x2="180.681" y2="61.2503" gradientUnits="userSpaceOnUse">
<stop stop-color="#9955E8"/>
<stop offset="1" stop-color="#7BFFAF"/>
</linearGradient>
<linearGradient id="paint1_linear_1106_651" x1="0.68103" y1="61.2501" x2="180.681" y2="61.2503" gradientUnits="userSpaceOnUse">
<stop stop-color="#9955E8"/>
<stop offset="1" stop-color="#7BFFAF"/>
</linearGradient>
</defs>
</svg>
