<svg width="181" height="123" viewBox="0 0 181 123" fill="none" xmlns="http://www.w3.org/2000/svg">
<path fill-rule="evenodd" clip-rule="evenodd" d="M47.1657 33.7775L19.0492 45.255L47.788 57.2159V84.5H61.1022L90.514 7.5H47.658L47.1657 33.7775ZM42.7509 0.500002C41.6609 0.500002 40.7716 1.37276 40.7512 2.46253L40.2532 29.0385L5.1732 43.3586C3.52047 44.0332 3.5125 46.3708 5.16059 47.0567L40.788 61.8846V89.5C40.788 90.6046 41.6834 91.5 42.788 91.5H64.5447C65.3739 91.5 66.1171 90.9883 66.413 90.2137L99.6445 3.21365C100.145 1.90432 99.1777 0.500002 97.7762 0.500002H42.7509Z" fill="url(#paint0_linear_1106_657)"/>
<path fill-rule="evenodd" clip-rule="evenodd" d="M134.196 58.2225L162.313 46.745L133.574 34.7841V7.5H120.26L90.8481 84.5H133.704L134.196 58.2225ZM138.611 91.5C139.701 91.5 140.59 90.6272 140.611 89.5375L141.109 62.9615L176.189 48.6415C177.842 47.9668 177.85 45.6293 176.201 44.9433L140.574 30.1154V2.5C140.574 1.39543 139.679 0.5 138.574 0.5H116.817C115.988 0.5 115.245 1.01171 114.949 1.78635L81.7176 88.7864C81.2174 90.0957 82.1843 91.5 83.5859 91.5H138.611Z" fill="url(#paint1_linear_1106_657)"/>
<path fill-rule="evenodd" clip-rule="evenodd" d="M42.861 99.2931C42.861 98.1665 43.7218 97 45.081 97H47.181C48.0095 97 48.681 97.6716 48.681 98.5V98.59C48.681 99.3687 48.0498 100 47.271 100C46.4923 100 45.861 100.631 45.861 101.41V107.224C45.861 107.89 45.5782 108.561 45.0284 109.015L43.8362 110L45.0284 110.985C45.5782 111.439 45.861 112.11 45.861 112.776V118.59C45.861 119.369 46.4923 120 47.271 120C48.0498 120 48.681 120.631 48.681 121.41V121.5C48.681 122.328 48.0095 123 47.181 123H45.081C43.7218 123 42.861 121.834 42.861 120.707V114.028C42.861 113.431 42.5947 112.866 42.1349 112.486L41.1986 111.712C41.0325 111.575 40.8237 111.5 40.6081 111.5C40.0961 111.5 39.681 111.085 39.681 110.573V109.427C39.681 108.915 40.0961 108.5 40.6081 108.5C40.8237 108.5 41.0325 108.425 41.1986 108.288L42.1348 107.514C42.5947 107.134 42.861 106.569 42.861 105.972V99.2931Z" fill="#F5F6F6"/>
<path fill-rule="evenodd" clip-rule="evenodd" d="M138.501 99.2931C138.501 98.1665 137.64 97 136.281 97H134.181C133.353 97 132.681 97.6716 132.681 98.5V98.59C132.681 99.3687 133.312 100 134.091 100C134.87 100 135.501 100.631 135.501 101.41V107.224C135.501 107.89 135.784 108.561 136.334 109.015L137.526 110L136.334 110.985C135.784 111.439 135.501 112.11 135.501 112.776V118.59C135.501 119.369 134.87 120 134.091 120C133.312 120 132.681 120.631 132.681 121.41V121.5C132.681 122.328 133.353 123 134.181 123H136.281C137.64 123 138.501 121.834 138.501 120.707V114.028C138.501 113.431 138.767 112.866 139.227 112.486L140.163 111.712C140.33 111.575 140.538 111.5 140.754 111.5C141.266 111.5 141.681 111.085 141.681 110.573V109.427C141.681 108.915 141.266 108.5 140.754 108.5C140.538 108.5 140.33 108.425 140.163 108.288L139.227 107.514C138.767 107.134 138.501 106.569 138.501 105.972V99.2931Z" fill="#F5F6F6"/>
<path d="M50.8083 100.871C50.8083 100.319 51.256 99.8709 51.8083 99.8709H53.5174C54.0697 99.8709 54.5174 100.319 54.5174 100.871V102.58C54.5174 103.132 54.0697 103.58 53.5174 103.58H51.8083C51.256 103.58 50.8083 103.132 50.8083 102.58V100.871Z" fill="#F5F6F6"/>
<path d="M50.8083 106.064C50.8083 105.511 51.256 105.064 51.8083 105.064H53.5174C54.0696 105.064 54.5174 105.511 54.5174 106.064V107.773C54.5174 108.325 54.0696 108.773 53.5174 108.773H51.8083C51.256 108.773 50.8083 108.325 50.8083 107.773V106.064Z" fill="#F5F6F6"/>
<path d="M50.8083 117.191C50.8083 116.639 51.256 116.191 51.8083 116.191H53.5174C54.0696 116.191 54.5174 116.639 54.5174 117.191V118.9C54.5174 119.452 54.0696 119.9 53.5174 119.9H51.8083C51.256 119.9 50.8083 119.452 50.8083 118.9V117.191Z" fill="#F5F6F6"/>
<path d="M50.8083 111.256C50.8083 110.704 51.256 110.256 51.8083 110.256H59.4519C60.0042 110.256 60.4519 110.704 60.4519 111.256V112.965C60.4519 113.518 60.0042 113.965 59.4519 113.965H51.8083C51.256 113.965 50.8083 113.518 50.8083 112.965V111.256Z" fill="#F5F6F6"/>
<path d="M61.9356 117.191C61.9356 116.639 62.3833 116.191 62.9356 116.191H80.9647C81.5169 116.191 81.9647 116.639 81.9647 117.191V118.9C81.9647 119.452 81.5169 119.9 80.9647 119.9H62.9356C62.3833 119.9 61.9356 119.452 61.9356 118.9V117.191Z" fill="#F5F6F6"/>
<path d="M56.7429 100.871C56.7429 100.319 57.1906 99.8709 57.7429 99.8709H59.452C60.0042 99.8709 60.452 100.319 60.452 100.871V102.58C60.452 103.132 60.0042 103.58 59.452 103.58H57.7429C57.1906 103.58 56.7429 103.132 56.7429 102.58V100.871Z" fill="#F5F6F6"/>
<path d="M56.7429 106.064C56.7429 105.511 57.1906 105.064 57.7429 105.064H59.452C60.0042 105.064 60.452 105.511 60.452 106.064V107.773C60.452 108.325 60.0042 108.773 59.452 108.773H57.7429C57.1906 108.773 56.7429 108.325 56.7429 107.773V106.064Z" fill="#F5F6F6"/>
<path d="M56.7429 117.191C56.7429 116.639 57.1906 116.191 57.7429 116.191H59.452C60.0042 116.191 60.452 116.639 60.452 117.191V118.9C60.452 119.452 60.0042 119.9 59.452 119.9H57.7429C57.1906 119.9 56.7429 119.452 56.7429 118.9V117.191Z" fill="#F5F6F6"/>
<path d="M61.9356 100.871C61.9356 100.319 62.3833 99.8709 62.9356 99.8709H64.6447C65.1969 99.8709 65.6447 100.319 65.6447 100.871V102.58C65.6447 103.132 65.1969 103.58 64.6447 103.58H62.9356C62.3833 103.58 61.9356 103.132 61.9356 102.58V100.871Z" fill="#F5F6F6"/>
<path d="M61.9356 106.064C61.9356 105.511 62.3833 105.064 62.9356 105.064H64.6447C65.1969 105.064 65.6447 105.511 65.6447 106.064V107.773C65.6447 108.325 65.1969 108.773 64.6447 108.773H62.9356C62.3833 108.773 61.9356 108.325 61.9356 107.773V106.064Z" fill="#F5F6F6"/>
<path d="M61.9356 111.256C61.9356 110.704 62.3833 110.256 62.9356 110.256H64.6447C65.1969 110.256 65.6447 110.704 65.6447 111.256V112.965C65.6447 113.518 65.1969 113.965 64.6447 113.965H62.9356C62.3833 113.965 61.9356 113.518 61.9356 112.965V111.256Z" fill="#F5F6F6"/>
<path d="M67.8701 100.871C67.8701 100.319 68.3178 99.8709 68.8701 99.8709H70.5792C71.1315 99.8709 71.5792 100.319 71.5792 100.871V102.58C71.5792 103.132 71.1315 103.58 70.5792 103.58H68.8701C68.3178 103.58 67.8701 103.132 67.8701 102.58V100.871Z" fill="#F5F6F6"/>
<path d="M96.801 100.871C96.801 100.319 97.2487 99.8709 97.801 99.8709H99.5101C100.062 99.8709 100.51 100.319 100.51 100.871V102.58C100.51 103.132 100.062 103.58 99.5101 103.58H97.801C97.2487 103.58 96.801 103.132 96.801 102.58V100.871Z" fill="#F5F6F6"/>
<path d="M96.801 106.064C96.801 105.511 97.2487 105.064 97.801 105.064H99.5101C100.062 105.064 100.51 105.511 100.51 106.064V107.773C100.51 108.325 100.062 108.773 99.5101 108.773H97.801C97.2487 108.773 96.801 108.325 96.801 107.773V106.064Z" fill="#F5F6F6"/>
<path d="M96.801 117.191C96.801 116.639 97.2487 116.191 97.801 116.191H99.5101C100.062 116.191 100.51 116.639 100.51 117.191V118.9C100.51 119.452 100.062 119.9 99.5101 119.9H97.801C97.2487 119.9 96.801 119.452 96.801 118.9V117.191Z" fill="#F5F6F6"/>
<path d="M116.088 100.871C116.088 100.319 116.536 99.8709 117.088 99.8709H118.797C119.35 99.8709 119.797 100.319 119.797 100.871V102.58C119.797 103.132 119.35 103.58 118.797 103.58H117.088C116.536 103.58 116.088 103.132 116.088 102.58V100.871Z" fill="#F5F6F6"/>
<path d="M116.088 106.064C116.088 105.511 116.536 105.064 117.088 105.064H118.797C119.35 105.064 119.797 105.511 119.797 106.064V107.773C119.797 108.325 119.35 108.773 118.797 108.773H117.088C116.536 108.773 116.088 108.325 116.088 107.773V106.064Z" fill="#F5F6F6"/>
<path d="M116.088 111.256C116.088 110.704 116.536 110.256 117.088 110.256H118.797C119.35 110.256 119.797 110.704 119.797 111.256V112.965C119.797 113.518 119.35 113.965 118.797 113.965H117.088C116.536 113.965 116.088 113.518 116.088 112.965V111.256Z" fill="#F5F6F6"/>
<path d="M116.088 117.191C116.088 116.639 116.536 116.191 117.088 116.191H118.797C119.35 116.191 119.797 116.639 119.797 117.191V118.9C119.797 119.452 119.35 119.9 118.797 119.9H117.088C116.536 119.9 116.088 119.452 116.088 118.9V117.191Z" fill="#F5F6F6"/>
<path d="M67.8701 106.064C67.8701 105.511 68.3178 105.064 68.8701 105.064H70.5792C71.1315 105.064 71.5792 105.511 71.5792 106.064V107.773C71.5792 108.325 71.1315 108.773 70.5792 108.773H68.8701C68.3178 108.773 67.8701 108.325 67.8701 107.773V106.064Z" fill="#F5F6F6"/>
<path d="M67.8701 111.256C67.8701 110.704 68.3178 110.256 68.8701 110.256H70.5792C71.1315 110.256 71.5792 110.704 71.5792 111.256V112.965C71.5792 113.518 71.1315 113.965 70.5792 113.965H68.8701C68.3178 113.965 67.8701 113.518 67.8701 112.965V111.256Z" fill="#F5F6F6"/>
<path d="M73.0628 100.871C73.0628 100.319 73.5105 99.8709 74.0628 99.8709H75.7719C76.3242 99.8709 76.7719 100.319 76.7719 100.871V102.58C76.7719 103.132 76.3242 103.58 75.7719 103.58H74.0628C73.5105 103.58 73.0628 103.132 73.0628 102.58V100.871Z" fill="#F5F6F6"/>
<path d="M101.994 100.871C101.994 100.319 102.441 99.8709 102.994 99.8709H104.703C105.255 99.8709 105.703 100.319 105.703 100.871V102.58C105.703 103.132 105.255 103.58 104.703 103.58H102.994C102.441 103.58 101.994 103.132 101.994 102.58V100.871Z" fill="#F5F6F6"/>
<path d="M101.994 106.064C101.994 105.511 102.441 105.064 102.994 105.064H104.703C105.255 105.064 105.703 105.511 105.703 106.064V107.773C105.703 108.325 105.255 108.773 104.703 108.773H102.994C102.441 108.773 101.994 108.325 101.994 107.773V106.064Z" fill="#F5F6F6"/>
<path d="M101.994 111.998C101.994 111.446 102.441 110.998 102.994 110.998H104.703C105.255 110.998 105.703 111.446 105.703 111.998V113.707C105.703 114.26 105.255 114.707 104.703 114.707H102.994C102.441 114.707 101.994 114.26 101.994 113.707V111.998Z" fill="#F5F6F6"/>
<path d="M101.994 117.191C101.994 116.639 102.441 116.191 102.994 116.191H104.703C105.255 116.191 105.703 116.639 105.703 117.191V118.9C105.703 119.452 105.255 119.9 104.703 119.9H102.994C102.441 119.9 101.994 119.452 101.994 118.9V117.191Z" fill="#F5F6F6"/>
<path d="M121.281 100.871C121.281 100.319 121.729 99.8709 122.281 99.8709H123.99C124.542 99.8709 124.99 100.319 124.99 100.871V102.58C124.99 103.132 124.542 103.58 123.99 103.58H122.281C121.729 103.58 121.281 103.132 121.281 102.58V100.871Z" fill="#F5F6F6"/>
<path d="M121.281 106.064C121.281 105.511 121.729 105.064 122.281 105.064H123.99C124.542 105.064 124.99 105.511 124.99 106.064V107.773C124.99 108.325 124.542 108.773 123.99 108.773H122.281C121.729 108.773 121.281 108.325 121.281 107.773V106.064Z" fill="#F5F6F6"/>
<path d="M121.281 111.256C121.281 110.704 121.729 110.256 122.281 110.256H123.99C124.542 110.256 124.99 110.704 124.99 111.256V112.965C124.99 113.518 124.542 113.965 123.99 113.965H122.281C121.729 113.965 121.281 113.518 121.281 112.965V111.256Z" fill="#F5F6F6"/>
<path d="M126.474 111.256C126.474 110.704 126.921 110.256 127.474 110.256H129.183C129.735 110.256 130.183 110.704 130.183 111.256V118.9C130.183 119.452 129.735 119.9 129.183 119.9H127.474C126.921 119.9 126.474 119.452 126.474 118.9V111.256Z" fill="#F5F6F6"/>
<path d="M121.281 117.191C121.281 116.639 121.729 116.191 122.281 116.191H123.99C124.542 116.191 124.99 116.639 124.99 117.191V118.9C124.99 119.452 124.542 119.9 123.99 119.9H122.281C121.729 119.9 121.281 119.452 121.281 118.9V117.191Z" fill="#F5F6F6"/>
<path d="M84.1901 100.871C84.1901 100.319 84.6378 99.8709 85.1901 99.8709H86.8992C87.4515 99.8709 87.8992 100.319 87.8992 100.871V102.58C87.8992 103.132 87.4515 103.58 86.8992 103.58H85.1901C84.6378 103.58 84.1901 103.132 84.1901 102.58V100.871Z" fill="#F5F6F6"/>
<path d="M73.0628 106.064C73.0628 105.511 73.5105 105.064 74.0628 105.064H75.7719C76.3242 105.064 76.7719 105.511 76.7719 106.064V107.773C76.7719 108.325 76.3242 108.773 75.7719 108.773H74.0628C73.5105 108.773 73.0628 108.325 73.0628 107.773V106.064Z" fill="#F5F6F6"/>
<path d="M73.0628 111.256C73.0628 110.704 73.5105 110.256 74.0628 110.256H75.7719C76.3242 110.256 76.7719 110.704 76.7719 111.256V112.965C76.7719 113.518 76.3242 113.965 75.7719 113.965H74.0628C73.5105 113.965 73.0628 113.518 73.0628 112.965V111.256Z" fill="#F5F6F6"/>
<path d="M78.2556 100.871C78.2556 100.319 78.7033 99.8709 79.2556 99.8709H80.9647C81.517 99.8709 81.9647 100.319 81.9647 100.871V102.58C81.9647 103.132 81.517 103.58 80.9647 103.58H79.2556C78.7033 103.58 78.2556 103.132 78.2556 102.58V100.871Z" fill="#F5F6F6"/>
<path d="M107.187 100.871C107.187 100.319 107.634 99.8709 108.187 99.8709H109.896C110.448 99.8709 110.896 100.319 110.896 100.871V102.58C110.896 103.132 110.448 103.58 109.896 103.58H108.187C107.634 103.58 107.187 103.132 107.187 102.58V100.871Z" fill="#F5F6F6"/>
<path d="M107.187 106.064C107.187 105.511 107.634 105.064 108.187 105.064H109.896C110.448 105.064 110.896 105.511 110.896 106.064V107.773C110.896 108.325 110.448 108.773 109.896 108.773H108.187C107.634 108.773 107.187 108.325 107.187 107.773V106.064Z" fill="#F5F6F6"/>
<path d="M107.187 117.191C107.187 116.639 107.634 116.191 108.187 116.191H109.896C110.448 116.191 110.896 116.639 110.896 117.191V118.9C110.896 119.452 110.448 119.9 109.896 119.9H108.187C107.634 119.9 107.187 119.452 107.187 118.9V117.191Z" fill="#F5F6F6"/>
<path d="M126.474 100.871C126.474 100.319 126.921 99.8709 127.474 99.8709H129.183C129.735 99.8709 130.183 100.319 130.183 100.871V102.58C130.183 103.132 129.735 103.58 129.183 103.58H127.474C126.921 103.58 126.474 103.132 126.474 102.58V100.871Z" fill="#F5F6F6"/>
<path d="M126.474 106.064C126.474 105.511 126.921 105.064 127.474 105.064H129.183C129.735 105.064 130.183 105.511 130.183 106.064V107.773C130.183 108.325 129.735 108.773 129.183 108.773H127.474C126.921 108.773 126.474 108.325 126.474 107.773V106.064Z" fill="#F5F6F6"/>
<path d="M89.3828 100.871C89.3828 100.319 89.8305 99.8709 90.3828 99.8709H92.0919C92.6442 99.8709 93.0919 100.319 93.0919 100.871V102.58C93.0919 103.132 92.6442 103.58 92.0919 103.58H90.3828C89.8305 103.58 89.3828 103.132 89.3828 102.58V100.871Z" fill="#F5F6F6"/>
<path d="M78.2556 106.064C78.2556 105.511 78.7033 105.064 79.2556 105.064H80.9647C81.517 105.064 81.9647 105.511 81.9647 106.064V107.773C81.9647 108.325 81.517 108.773 80.9647 108.773H79.2556C78.7033 108.773 78.2556 108.325 78.2556 107.773V106.064Z" fill="#F5F6F6"/>
<path d="M84.1901 111.256C84.1901 110.704 84.6378 110.256 85.1901 110.256H86.8992C87.4515 110.256 87.8992 110.704 87.8992 111.256V112.965C87.8992 113.518 87.4515 113.965 86.8992 113.965H85.1901C84.6378 113.965 84.1901 113.518 84.1901 112.965V111.256Z" fill="#F5F6F6"/>
<path d="M89.3828 108.773H93.0919V112.965C93.0919 113.518 92.6442 113.965 92.0919 113.965H90.3828C89.8306 113.965 89.3828 113.518 89.3828 112.965V108.773Z" fill="#F5F6F6"/>
<path d="M84.1901 106.064C84.1901 105.511 84.6378 105.064 85.1901 105.064H92.0919C92.6442 105.064 93.0919 105.511 93.0919 106.064L93.0919 108.773L85.1901 108.773C84.6378 108.773 84.1901 108.325 84.1901 107.773V106.064Z" fill="#F5F6F6"/>
<path d="M78.2556 111.256C78.2556 110.704 78.7033 110.256 79.2556 110.256H80.9647C81.517 110.256 81.9647 110.704 81.9647 111.256V112.965C81.9647 113.518 81.517 113.965 80.9647 113.965H79.2556C78.7033 113.965 78.2556 113.518 78.2556 112.965V111.256Z" fill="#F5F6F6"/>
<path d="M84.1901 117.191C84.1901 116.639 84.6378 116.191 85.1901 116.191H86.8992C87.4515 116.191 87.8992 116.639 87.8992 117.191V118.9C87.8992 119.452 87.4515 119.9 86.8992 119.9H85.1901C84.6378 119.9 84.1901 119.452 84.1901 118.9V117.191Z" fill="#F5F6F6"/>
<path d="M89.3828 117.191C89.3828 116.639 89.8305 116.191 90.3828 116.191H92.0919C92.6442 116.191 93.0919 116.639 93.0919 117.191V118.9C93.0919 119.452 92.6442 119.9 92.0919 119.9H90.3828C89.8305 119.9 89.3828 119.452 89.3828 118.9V117.191Z" fill="#F5F6F6"/>
<defs>
<linearGradient id="paint0_linear_1106_657" x1="90.681" y1="0.5" x2="90.681" y2="123" gradientUnits="userSpaceOnUse">
<stop stop-color="#7DFFAF"/>
<stop offset="1" stop-color="#9955E8"/>
</linearGradient>
<linearGradient id="paint1_linear_1106_657" x1="90.681" y1="0.5" x2="90.681" y2="123" gradientUnits="userSpaceOnUse">
<stop stop-color="#7DFFAF"/>
<stop offset="1" stop-color="#9955E8"/>
</linearGradient>
</defs>
</svg>
